<svg version="1.0" viewBox="0 0 838.96 202.7" xmlns="http://www.w3.org/2000/svg">
  <path transform="matrix(1.5252 0 0 1.5252 247.11 52.583)" d="m-51.52 98.425-86.199-1e-6a24.301 24.301 60 0 1-21.045-36.452l49.528-85.784a21.332 21.332 2.522e-7 0 1 36.948 1e-6l45.671 79.104a28.755 28.755 120 0 1-24.902 43.132z" fill="#f00" fill-rule="evenodd" style="fill:#0a0a0a;paint-order:stroke markers fill"/>
  <path transform="matrix(1.0356 0 0 1.0249 202.09 76.206)" d="m-38.751 98.425-112.69-1e-6a16.381 16.381 60 0 1-14.186-24.571l64.284-111.34a12.213 12.213 2.522e-7 0 1 21.154 0l59.952 103.84a21.383 21.383 120 0 1-18.518 32.074z" fill="#fff" fill-rule="evenodd" style="paint-order:stroke markers fill"/>
  <path transform="scale(-1,1)" d="m-108.38 58.523h0.4601c6.4744 0 11.687 5.2122 11.687 11.687v51.363c0 6.4744-5.2122 11.687-11.687 11.687h-0.4601c-6.4744 0-11.687-5.2122-11.687-11.687v-51.363c0-6.4744 5.2122-11.687 11.687-11.687z" fill="#f00" fill-rule="evenodd" stroke-width="0" style="fill:#0a0a0a;paint-order:stroke markers fill"/>
  <path d="m120.07 152.53a11.917 11.917 0 0 1-11.917 11.917 11.917 11.917 0 0 1-11.917-11.917 11.917 11.917 0 0 1 11.917-11.917 11.917 11.917 0 0 1 11.917 11.917z" fill="#f00" fill-rule="evenodd" stroke-width="0" style="fill:#0a0a0a;paint-order:stroke markers fill"/>
  <path d="m147.66 14.703 68.834 119.89c10.185 17.802 7.851 40.169-5.7871 55.457h540.57c48.572 0 87.676-39.104 87.676-87.676s-39.104-87.676-87.676-87.676z" fill="#f00" fill-rule="evenodd" style="fill:#0a0a0a;paint-order:stroke markers fill"/>
  <path d="m250.97 160.45v-44.066h30.209v7.4545h-21.312v10.43h18.396v7.4546h-18.396v18.727zm37.573 0v-44.066h18.727q7.0638 0 10.25 1.2024 3.2163 1.1723 5.14 4.2082 1.9238 3.0359 1.9238 6.9435 0 4.9597-2.9157 8.206-2.9157 3.2163-8.717 4.0579 2.8856 1.6833 4.7493 3.6972 1.8937 2.0139 5.0799 7.154l5.3805 8.5968h-10.641l-6.4326-9.5887q-3.4267-5.14-4.6892-6.4626-1.2625-1.3526-2.6752-1.8336-1.4128-0.511-4.4787-0.511h-1.8035v18.396zm8.8974-25.43h6.5828q6.4025 0 7.9956-0.54106 1.5931-0.54105 2.4949-1.8636t0.90176-3.3064q0-2.2243-1.2023-3.577-1.1723-1.3827-3.3365-1.7434-1.0821-0.1503-6.4927-0.1503h-6.9435zm35.529 25.43v-44.066h32.674v7.4545h-23.776v9.7691h22.123v7.4245h-22.123v11.993h24.618v7.4245zm41.06 0v-44.066h32.674v7.4545h-23.776v9.7691h22.123v7.4245h-22.123v11.993h24.618v7.4245zm55.909-14.338 8.6569-0.84164q0.78153 4.3585 3.1562 6.4025 2.4047 2.044 6.4626 2.044 4.2984 0 6.4626-1.8035 2.1943-1.8336 2.1943-4.2683 0-1.563-0.93182-2.6452-0.90176-1.1122-3.1862-1.9238-1.563-0.54106-7.1239-1.9238-7.154-1.7735-10.04-4.3585-4.0579-3.6371-4.0579-8.8673 0-3.3666 1.8937-6.2823 1.9238-2.9457 5.5007-4.4787 3.607-1.533 8.687-1.533 8.2962 0 12.474 3.6371 4.2082 3.6371 4.4186 9.7089l-8.8974 0.39076q-0.57111-3.3966-2.4648-4.8695-1.8636-1.5029-5.621-1.5029-3.8776 0-6.0718 1.5931-1.4128 1.022-1.4128 2.7353 0 1.563 1.3226 2.6752 1.6833 1.4128 8.176 2.9457t9.5887 3.1862q3.1261 1.6232 4.8695 4.4787 1.7735 2.8255 1.7735 7.0037 0 3.7874-2.1041 7.0938t-5.9516 4.9296q-3.8475 1.5931-9.5887 1.5931-8.3563 0-12.835-3.8475-4.4787-3.8776-5.3504-11.272zm41.511-7.4245q0-6.7331 2.0139-11.302 1.5029-3.3666 4.088-6.0418 2.6151-2.6752 5.7111-3.9677 4.118-1.7434 9.4985-1.7434 9.739 0 15.57 6.0418 5.8614 6.0418 5.8614 16.803 0 10.671-5.8013 16.713-5.8013 6.0117-15.51 6.0117-9.8292 0-15.63-5.9817-5.8013-6.0117-5.8013-16.532zm9.1679-0.30058q0 7.4846 3.4568 11.362 3.4567 3.8475 8.7771 3.8475t8.717-3.8174q3.4267-3.8475 3.4267-11.512 0-7.5748-3.3365-11.302-3.3064-3.7273-8.8072-3.7273t-8.8673 3.7874q-3.3666 3.7573-3.3666 11.362zm40.579 22.063v-44.066h30.209v7.4545h-21.312v10.43h18.396v7.4546h-18.396v18.727zm47.463 0v-36.611h-13.076v-7.4545h35.018v7.4545h-13.045v36.611zm33.936 0-10.521-44.066h9.1078l6.643 30.269 8.0557-30.269h10.581l7.7251 30.78 6.7632-30.78h8.9575l-10.701 44.066h-9.4384l-8.7771-32.944-8.7471 32.944zm88.192 0h-9.6789l-3.8475-10.01h-17.614l-3.6371 10.01h-9.4384l17.163-44.066h9.4084zm-16.382-17.434-6.0718-16.352-5.9516 16.352zm21.131 17.434v-44.066h18.727q7.0638 0 10.25 1.2024 3.2163 1.1723 5.14 4.2082 1.9238 3.0359 1.9238 6.9435 0 4.9597-2.9157 8.206-2.9157 3.2163-8.717 4.0579 2.8856 1.6833 4.7493 3.6972 1.8937 2.0139 5.0799 7.154l5.3805 8.5968h-10.641l-6.4326-9.5887q-3.4267-5.14-4.6892-6.4626-1.2625-1.3526-2.6752-1.8336-1.4128-0.511-4.4787-0.511h-1.8035v18.396zm8.8974-25.43h6.5828q6.4025 0 7.9956-0.54106 1.5931-0.54105 2.4949-1.8636t0.90176-3.3064q0-2.2243-1.2023-3.577-1.1723-1.3827-3.3365-1.7434-1.0821-0.1503-6.4927-0.1503h-6.9436zm35.529 25.43v-44.066h32.674v7.4545h-23.776v9.7691h22.123v7.4245h-22.123v11.993h24.618v7.4245z" fill="#fff" fill-rule="evenodd" stroke-width="0" style="paint-order:stroke markers fill" aria-label="FREE SOFTWARE"/>
  <path d="m313.71 102.69h-14.03l-5.5772-14.509h-25.533l-5.2722 14.509h-13.682l24.88-63.877h13.638zm-23.747-25.272-8.8015-23.703-8.6272 23.703zm38.343 25.272v-53.071h-18.954v-10.806h50.761v10.806h-18.91v53.071zm54.509 0v-53.071h-18.954v-10.806h50.761v10.806h-18.91v53.071zm40.13 0v-63.877h47.363v10.806h-34.465v14.161h32.069v10.762h-32.069v17.385h35.685v10.762zm59.65 0v-63.877h12.549l26.143 42.657v-42.657h11.982v63.877h-12.941l-25.751-41.655v41.655zm78.691 0v-53.071h-18.954v-10.806h50.761v10.806h-18.91v53.071zm39.738 0v-63.877h12.897v63.877zm22.57-31.546q0-9.7601 2.9193-16.383 2.1786-4.8801 5.9258-8.758 3.7908-3.8779 8.2787-5.7515 5.9694-2.5272 13.769-2.5272 14.117 0 22.57 8.758 8.4965 8.758 8.4965 24.357 0 15.468-8.4094 24.226-8.4094 8.7144-22.483 8.7144-14.248 0-22.657-8.6708-8.4094-8.7144-8.4094-23.965zm13.289-0.43572q0 10.849 5.0108 16.47 5.0108 5.5772 12.723 5.5772t12.636-5.5336q4.9672-5.5772 4.9672-16.688 0-10.98-4.8365-16.383-4.7929-5.4029-12.767-5.4029t-12.854 5.4901q-4.8801 5.4465-4.8801 16.47zm58.866 31.982v-63.877h12.549l26.143 42.657v-42.657h11.982v63.877h-12.941l-25.751-41.655v41.655zm69.018-16.47-3.1808-32.418v-14.989h13.246v14.989l-3.1372 32.418zm-2.6579 16.47v-12.244h12.244v12.244z" fill="#fff" fill-rule="evenodd" stroke-width="0" style="paint-order:stroke markers fill" aria-label="ATTENTION!"/>
</svg>
