<svg width="512" height="512" version="1.1" viewBox="0 0 512 512" xmlns="http://www.w3.org/2000/svg">
  <path d="m178.68 0.49267c-20.566 2.5702-70.019 15.531-93.291 80.29-2.0927 5.824-4.9453 15.89-9.2513 19.907-16.555 15.442-59.28 12.841-72.564 24.622-3.7549 3.3306-4.3229 13.092-2.7655 18.268 0.65678 2.176 1.6475 4.5056 3.136 6.7097 4.4358 6.5664 12.79 12.196 27.436 17.572 9.7854 3.5916 26.068 7.9872 36.212 10.104 0.96557 0.20121 1.9177 0.384 2.8603 0.56319 10.168 1.9712 28.434 1.8688 35.64 9.5385 5.1456 5.4733 7.7562 13.727 9.6334 23.068 1.1262 5.6038 0.32116 14.671-2.8126 19.254-14.915 21.809-55.057 45.637-62.483 98.043-1.4853 10.475-1.6205 32.328-0.25018 40.432 10.115 59.848 72.375 143.33 210.87 143.14 256.15-0.4352 255.31-210.87 249.49-272.98-2.3858-25.439-5.9062-43.577-10.305-53.093-2.0645-4.4646-3.2549-5.2198-7.6627-4.8563-4.4745 0.35841-8.7307 2.4064-28.357 13.55-101.81 57.828-216.75 55.268-181.35-12.552 24.069-43.574 22.056-79.063 18.277-97.38-4.5708-22.356-13.084-39.448-26.754-53.713-11.995-12.518-26.939-21.202-45.295-26.324-17.502-4.8845-42.151-5.2019-50.406-4.1856" fill="#040404" fill-rule="evenodd" stroke-width=".54573" style="fill:#fff"/>
</svg>
