<?xml version="1.0" encoding="UTF-8"?>
<svg width="696.2pt" height="696.2pt" preserveAspectRatio="xMidYMid" version="1.0" viewBox="0 0 696.2 696.2" xmlns="http://www.w3.org/2000/svg">
<metadata>Created by Michael Kolesidis</metadata>
<g transform="matrix(.1 0 0 -.1 -291.8 988)">
<path d="m5881 9710c-78-92-148-173-155-179-11-9-59 9-220 84-113 52-210 95-214 95-5 0-57-92-117-205-59-113-113-205-119-205s-110 23-231 50-220 48-221 47c-2-1-30-101-63-221-34-120-64-223-67-227-3-5-110-9-238-9h-233l-6-92c-4-51-10-157-13-236-7-134-8-143-28-147-12-3-112-25-224-50-111-24-206-46-210-49-5-3 9-108 29-233 21-125 35-231 31-235-4-3-97-48-207-98s-203-95-207-98c-3-4 31-101 78-217 46-115 84-214 84-220 0-5-84-73-185-150-102-77-185-141-185-143 0-1 57-86 126-188 70-102 127-192 128-199 0-7-57-82-129-166-71-84-138-164-149-177l-18-23 118-112c66-61 143-135 172-162l54-51-112-209c-83-157-108-210-98-217 7-4 97-58 200-120 104-62 188-118 188-125s-27-110-60-229c-34-119-60-217-58-219 2-1 100-35 218-75s218-75 222-79c3-3 0-109-7-236-8-126-13-231-11-232 1-2 105-14 231-28 125-14 231-28 234-31s22-107 43-231c20-123 38-226 40-228 1-2 104 8 227 22 123 13 229 22 235 20 7-3 47-94 90-203 43-110 82-206 87-215 7-13 38-5 225 58 120 40 221 73 225 73s67-88 138-195l131-194 200 120c110 66 205 119 210 117s84-74 175-161l165-159 169 161c93 89 173 161 178 161 4 0 97-54 206-119l197-119 104 151c57 84 116 171 131 195 15 23 31 42 34 42 4 0 101-32 216-70 116-39 216-69 223-68 8 2 50 96 95 210 45 113 85 210 89 213 4 4 98-3 210-15s216-22 232-23l29-2 37 228c21 125 40 230 42 232 3 3 107 16 233 30 125 14 230 27 232 29s-1 86-7 187c-5 101-11 206-12 233l-3 49 219 74c121 40 222 75 224 78 3 2-24 106-58 230-35 124-61 227-59 229 2 1 90 54 194 116 105 62 194 116 199 121 4 4-34 88-87 186-52 98-102 192-110 209l-16 31 170 158c93 87 169 161 169 165 0 3-68 86-151 183-96 114-147 182-143 190 5 6 62 91 127 187 66 96 121 180 124 186 2 6-79 73-179 149-101 76-185 140-187 142-3 2 34 101 82 220 47 119 84 219 82 223s-96 49-207 100c-112 51-206 95-210 99-5 5 31 241 67 437l5 31-222 48c-123 27-228 53-234 59-7 7-14 73-18 171-4 88-9 190-12 227l-7 68-235 2-236 3-62 223c-34 123-63 225-65 227s-103-19-224-46-224-49-230-49c-5 0-59 92-118 205-60 113-112 205-116 205s-100-43-214-95c-113-52-208-95-210-95-3 0-74 81-157 180l-152 180-62-48c-33-27-118-92-188-145l-128-98-87 69c-49 37-133 102-189 144l-101 76z"/>
</g>
<g transform="matrix(.78361 0 0 1.3842 -1472.5 -232.73)" fill="#fff" fill-rule="evenodd" stroke="#000" stroke-linejoin="round" stroke-width="23.805" style="paint-order:markers stroke fill" aria-label="NEW!">
<path d="m2011.4 511.09h36.957v-77.845c0-22.279-3.4073-46.655-4.98-67.623h1.3106l19.658 41.675 55.828 103.79h39.578v-194.22h-36.694v77.583c0 22.017 3.1452 47.703 5.242 67.885h-1.3105l-19.658-41.937-56.352-103.53h-39.578z"/>
<path d="m2207.7 511.09h121.88v-32.501h-83.087v-51.897h67.885v-32.501h-67.885v-44.82h80.204v-32.501h-119z"/>
<path d="m2387.3 511.09h47.441l21.23-96.192c2.8832-14.94 5.7663-29.88 8.6495-44.558h1.0484c2.0968 14.678 4.98 29.618 8.1252 44.558l21.755 96.192h48.227l35.908-194.22h-36.694l-15.464 94.882c-2.8831 20.182-5.7663 40.888-8.6494 61.857h-1.3105c-4.1937-20.968-7.8631-41.937-12.319-61.857l-22.541-94.882h-33.287l-22.279 94.882c-4.1937 20.182-8.3873 40.888-12.319 61.857h-1.0484c-2.8831-20.968-6.0284-41.412-9.1736-61.857l-14.94-94.882h-39.578z"/>
<path d="m2620.8 445.03h25.162l5.5042-96.716 1.3105-36.695h-38.791l1.3105 36.695zm12.581 69.72c13.892 0 23.851-11.008 23.851-25.162 0-14.416-9.9599-25.162-23.851-25.162-13.629 0-23.852 10.746-23.852 25.162 0 14.154 10.222 25.162 23.852 25.162z"/>
</g>
</svg>
