<svg width="122" height="173.94" version="1.1" viewBox="0 0 122 173.94" xmlns="http://www.w3.org/2000/svg">
  <path transform="translate(-189.28 -28.095)" d="m308.81 80.274c-2.202-9.035-9.859-13.376-9.307-23.798 1.274-24.037-66.013-35.405-81.393-19.535-8.786 9.065-27.395 23.032-27.333 36.002 0.035 7.275 2.663 12.713 2.222 20.229-0.833 14.189-5.185 12.535 6.942 23.798 2.195 2.039 4.235 4.22 6.231 6.426 4.827 7.905-7.328 42.032 5.831 41.18 7.891-0.511 8.249-12.001 7.465-20.3-0.291-3.075 2.971-5.161 5.704-3.722 0.026 0.013 0.051 0.027 0.077 0.04-0.033-1e-3 -0.054-1e-3 -0.054-1e-3 11.002 5.771-8.996 43.536 5.646 46.75s-1.062-39.056 10.182-42.562c1e-3 0 1e-3 0 2e-3 -1e-3 3.588 0.279 7.158 0.18 10.687-0.217 0.204 0.072 0.418 0.144 0.656 0.218 11.245 3.506-13.593 59.093 10.182 55.597 15.787-2.321-1.498-44.945 3.114-56.716 0.617-1.574 1.959-2.752 3.55-3.321l0.098-0.035c4.299-1.537 8.679 2.082 7.975 6.594-1.234 7.906-2.942 17.222 4.1 17.678 9.971 0.646 5.406-18.795 4.709-31.691 5.682-3.069 10.429-6.866 13.237-13.758 2.324-5.703 1.428-12.469 4.346-18.624 4.438-9.362 7.894-8.897 5.131-20.231z" style="fill:#fff"/>
  <path transform="translate(-189.28 -28.095)" d="m211.78 95.209c0.838 3.997 2.358 7.923 4.6 11.612 10.607 17.458 33.358 23.011 50.815 12.404 8.729-5.304 14.482-13.643 16.726-22.839" style="fill:none;stroke-miterlimit:10;stroke-width:2;stroke:#1c1c26"/>
  <path transform="translate(-189.28 -28.095)" d="m308.81 80.274c-2.202-9.035-9.859-13.376-9.307-23.798 1.274-24.037-66.013-35.405-81.393-19.535-8.786 9.065-27.395 23.032-27.333 36.002 0.035 7.275 2.663 12.713 2.222 20.229-0.833 14.189-5.185 12.535 6.942 23.798 2.195 2.039 4.235 4.22 6.231 6.426 4.827 7.905-7.328 42.032 5.831 41.18 7.891-0.511 8.249-12.001 7.465-20.3-0.291-3.075 2.971-5.161 5.704-3.722 0.026 0.013 0.023 0.039 0.023 0.039 11.002 5.771-8.996 43.536 5.646 46.75s-1.062-39.056 10.182-42.562c1e-3 0 1e-3 0 2e-3 -1e-3 3.588 0.279 7.158 0.18 10.687-0.217 0.204 0.072 0.418 0.144 0.656 0.218 11.245 3.506-13.593 59.093 10.182 55.597 15.787-2.321-1.498-44.945 3.114-56.716 0.617-1.574 1.959-2.752 3.55-3.321l0.098-0.035c4.299-1.537 8.679 2.082 7.975 6.594-1.234 7.906-2.942 17.222 4.1 17.678 9.971 0.646 5.406-18.795 4.709-31.691 5.682-3.069 10.429-6.866 13.237-13.758 2.324-5.703 1.428-12.469 4.346-18.624 4.438-9.362 7.894-8.897 5.131-20.231z" style="fill:none;stroke-miterlimit:10;stroke-width:2;stroke:#1c1c26"/>
  <path transform="translate(-189.28 -28.095)" d="m237.72 78.739 2.533-3.769c-3.284-5.991-5.713-10.396-8.636-10.396-3.509 0-6.406 6.342-1.983 14.166 4.423 7.823 3.816 14.166 7.325 14.166 3.383 0 9.351-5.893 5.816-13.325z" style="clip-rule:evenodd;fill-rule:evenodd;fill:#1c1c26;stroke:#fff"/>
  <path transform="translate(-189.28 -28.095)" d="m270.51 78.739c-0.029-0.052-0.057-0.102-0.086-0.154l-5.212-0.866 2.597-3.864c-2.98-5.413-5.285-9.281-8.023-9.281-3.509 0-6.406 6.342-1.983 14.166 4.423 7.823 3.816 14.166 7.325 14.166 3.508-1e-3 9.804-6.343 5.382-14.167z" style="clip-rule:evenodd;fill-rule:evenodd;fill:#1c1c26;stroke:#fff"/>
</svg>
