<?xml version="1.0" encoding="UTF-8"?>
<svg width="815" height="815" fill="#000000" version="1.1" viewBox="0 0 494.09 494.09" xml:space="preserve" xmlns="http://www.w3.org/2000/svg">

	<path d="m418.52 75.573c-45.803-45.801-106.7-71.026-171.47-71.026s-125.67 25.225-171.47 71.026c-45.801 45.803-71.026 106.7-71.026 171.47 0 64.77 25.225 125.67 71.026 171.47 45.803 45.801 106.7 71.026 171.47 71.026 64.77 0 125.67-25.225 171.47-71.026 45.801-45.803 71.026-106.7 71.026-171.47 0-64.77-25.225-125.67-71.026-171.47z" fill="#fff"/><path d="m418.52 75.573c-45.803-45.801-106.7-71.026-171.47-71.026s-125.67 25.225-171.47 71.026c-45.801 45.803-71.026 106.7-71.026 171.47s25.225 125.67 71.026 171.47c45.803 45.801 106.7 71.026 171.47 71.026s125.67-25.225 171.47-71.026c45.801-45.803 71.026-106.7 71.026-171.47s-25.225-125.67-71.026-171.47zm-171.47 383.97c-117.17 0-212.5-95.327-212.5-212.5s95.327-212.5 212.5-212.5 212.5 95.327 212.5 212.5-95.327 212.5-212.5 212.5z" stroke="#000" stroke-width="9.0938"/>
	
	
	<path d="m323.06 219.66c19.299 0 35-15.701 35-35s-15.701-35-35-35c-19.299 0-35 15.701-35 35s15.701 35 35 35z" stroke="#000" stroke-width="9.0938"/><path d="m171.04 219.66c19.299 0 35-15.701 35-35s-15.701-35-35-35c-19.299 0-35 15.701-35 35s15.702 35 35 35z" stroke="#000" stroke-width="9.0938"/><path d="m247.05 345.6c-46.911 0-89.35-29.619-105.6-73.703l-28.148 10.378c20.581 55.821 74.332 93.325 133.75 93.325 59.42 0 113.17-37.504 133.75-93.325l-28.148-10.378c-16.254 44.084-58.693 73.703-105.6 73.703z" stroke="#000" stroke-width="9.0938"/>

</svg>
