<?xml version="1.0" encoding="UTF-8"?>
<svg viewBox="0 0 400 393.75" xmlns="http://www.w3.org/2000/svg">
<defs>
<style>.cls-1 {
        fill: #231f20;
      }

      .cls-2 {
        fill: #fff;
      }</style>
</defs>
<g data-name="Layer_1">
<rect class="cls-1" y="200" width="400" height="6.25"/>
<rect class="cls-2" y="206.25" width="400" height="6.25"/>
<rect class="cls-1" y="212.5" width="400" height="6.25"/>
<rect class="cls-2" y="218.75" width="400" height="6.25"/>
<rect class="cls-1" y="225" width="400" height="6.25"/>
<rect class="cls-2" y="231.25" width="400" height="6.25"/>
<rect class="cls-1" y="237.5" width="400" height="6.25"/>
<rect class="cls-2" y="243.75" width="400" height="6.25"/>
<rect class="cls-1" y="250" width="400" height="6.25"/>
<rect class="cls-2" y="256.25" width="400" height="6.25"/>
<rect class="cls-1" y="262.5" width="400" height="6.25"/>
<rect class="cls-2" y="268.75" width="400" height="6.25"/>
<rect class="cls-1" y="275" width="400" height="6.25"/>
<rect class="cls-2" y="281.25" width="400" height="6.25"/>
<rect class="cls-1" y="287.5" width="400" height="6.25"/>
<rect class="cls-2" y="293.75" width="400" height="6.25"/>
<rect class="cls-1" y="300" width="400" height="6.25"/>
<rect class="cls-2" y="306.25" width="400" height="6.25"/>
<rect class="cls-1" y="312.5" width="400" height="6.25"/>
<rect class="cls-2" y="318.75" width="400" height="6.25"/>
<rect class="cls-1" y="325" width="400" height="6.25"/>
<rect class="cls-2" y="331.25" width="400" height="6.25"/>
<rect class="cls-1" y="337.5" width="400" height="6.25"/>
<rect class="cls-2" y="343.75" width="400" height="6.25"/>
<rect class="cls-1" y="350" width="400" height="6.25"/>
<rect class="cls-2" y="356.25" width="400" height="6.25"/>
<rect class="cls-1" y="362.5" width="400" height="6.25"/>
<rect class="cls-2" y="368.75" width="400" height="6.25"/>
<rect class="cls-1" y="375" width="400" height="6.25"/>
<rect class="cls-2" y="381.25" width="400" height="6.25"/>
<rect class="cls-1" y="387.5" width="400" height="6.25"/>
<rect class="cls-1" width="400" height="6.25"/>
<rect class="cls-2" y="6.25" width="400" height="6.25"/>
<rect class="cls-1" y="12.5" width="400" height="6.25"/>
<rect class="cls-2" y="18.75" width="400" height="6.25"/>
<rect class="cls-1" y="25" width="400" height="6.25"/>
<rect class="cls-2" y="31.25" width="400" height="6.25"/>
<rect class="cls-1" y="37.5" width="400" height="6.25"/>
<rect class="cls-2" y="43.75" width="400" height="6.25"/>
<rect class="cls-1" y="50" width="400" height="6.25"/>
<rect class="cls-2" y="56.25" width="400" height="6.25"/>
<rect class="cls-1" y="62.5" width="400" height="6.25"/>
<rect class="cls-2" y="68.75" width="400" height="6.25"/>
<rect class="cls-1" y="75" width="400" height="6.25"/>
<rect class="cls-2" y="81.25" width="400" height="6.25"/>
<rect class="cls-1" y="87.5" width="400" height="6.25"/>
<rect class="cls-2" y="93.75" width="400" height="6.25"/>
<rect class="cls-1" y="100" width="400" height="6.25"/>
<rect class="cls-2" y="106.25" width="400" height="6.25"/>
<rect class="cls-1" y="112.5" width="400" height="6.25"/>
<rect class="cls-2" y="118.75" width="400" height="6.25"/>
<rect class="cls-1" y="125" width="400" height="6.25"/>
<rect class="cls-2" y="131.25" width="400" height="6.25"/>
<rect class="cls-1" y="137.5" width="400" height="6.25"/>
<rect class="cls-2" y="143.75" width="400" height="6.25"/>
<rect class="cls-1" y="150" width="400" height="6.25"/>
<rect class="cls-2" y="156.25" width="400" height="6.25"/>
<rect class="cls-1" y="162.5" width="400" height="6.25"/>
<rect class="cls-2" y="168.75" width="400" height="6.25"/>
<rect class="cls-1" y="175" width="400" height="6.25"/>
<rect class="cls-2" y="181.25" width="400" height="6.25"/>
<rect class="cls-1" y="187.5" width="400" height="6.25"/>
<rect class="cls-2" y="193.75" width="400" height="6.25"/>
</g>
</svg>
