<svg width="383.58" height="122.32" version="1.1" viewBox="0 0 383.58 122.32" xmlns="http://www.w3.org/2000/svg">
  <path d="m176.51 32.598 27.878-7.2341-6.7356 39.978-26.755 4.1882z" style="fill-rule:evenodd;fill:#fff;paint-order:stroke markers fill"/>
  <path d="m258.2 0-2.9336 6.4942c-1.5402 3.4094-3.3183 7.6778-3.9746 9.5586l-0.80861 2.3223-2.0117-3.4102c-3.4714-5.8891-7.4116-9.4706-13.291-12.07-7.1126-3.1459-14.609-3.7227-18.646-1.1484-12.48 7.9589-21.73 27.322-21.73 45.236 0 2.9886-0.092 5.0836-0.28516 6.3965-0.0966 0.65641-0.22384 1.1176-0.34375 1.3672-0.1199 0.24963-0.15855 0.23229-0.16016 0.23242-0.67706 0.0532-2.3693 0.16613-3.7422 0.25-1.0969 0.066-1.9925 0.38659-2.666 1.2148-0.6735 0.82825-1.1558 2.0704-1.7793 4.0527-0.79513 2.5272-1.6864 3.8692-2.1992 4.1348-0.25642 0.1328-0.37925 0.12255-0.65234-0.084-0.2731-0.20654-0.62231-0.6772-0.95703-1.4004-1.3389-2.8927-2.4909-9.6352-2.9336-19.199-0.20221-4.3613-0.26761-7.5309-0.19727-9.5312 0.0305-0.86771 0.0988-1.4112 0.17188-1.8164 0.14282 0.19628 0.24525 0.27612 0.40234 0.625 0.27594 0.61282 0.53036 1.3979 0.68555 2.1738 0.13657 0.68183 0.26142 1.2223 0.43945 1.6719 0.17804 0.44956 0.42884 0.82648 0.80273 1.0684 0.74777 0.48375 1.6881 0.37412 3.1953 0.16602 1.7995-0.24895 4.5854-0.59077 6.1699-0.75977 1.3582-0.14512 2.3893-0.50766 3.248-1.7168s1.6346-3.1857 2.9414-6.7402c1.3154-3.5752 2.0268-5.6774 2.2871-7.5742 0.2603-1.8968 0.0528-3.5412-0.42187-6.1094-1.0168-5.4993-3.6145-9.3088-7.5977-11.168-3.9832-1.8592-9.2635-1.7717-15.641 0.23437-7.2711 2.2865-16.784 10.769-21.258 18.846-1.4355 2.5905-2.2162 4.1074-2.5976 6.5938-0.38147 2.4864-0.38202 5.9062-0.35352 12.471 0.016 3.7193 0.10859 7.5664 0.24414 10.773 0.13556 3.2071 0.30747 5.748 0.50781 6.959l0.59961 3.6152-4.7031 0.36524c-1.4396 0.11177-2.771 0.20223-3.7539 0.25781-0.49144 0.0278-0.89665 0.0461-1.1797 0.0547-0.0401 1e-3 -0.0567 1e-3 -0.0918 2e-3 -0.0414-0.23542-0.0954-0.59114-0.1543-1.0469-0.11826-0.91481-0.26602-2.2308-0.43359-3.8418-0.33513-3.222-0.74825-7.6216-1.168-12.367-0.83944-9.4911-1.7019-20.376-2-26.008-0.18357-3.4763-0.45625-6.5066-0.77149-8.75-0.15762-1.1217-0.32471-2.0452-0.50195-2.7422-0.0886-0.34848-0.17867-0.63934-0.2793-0.88086-0.10064-0.24152-0.18837-0.43916-0.4082-0.61328h-2e-3c-0.32241-0.25487-0.70642-0.33761-1.2109-0.41016-0.50451-0.0725-1.1259-0.10495-1.8535-0.10156-1.4552 7e-3 -3.3361 0.15611-5.4668 0.44531-6.0492 0.82229-8.8686 1.0537-10.551 2.0898-0.84107 0.51809-1.3357 1.273-1.6621 2.25s-0.52885 2.1989-0.8711 3.8555c-0.3076 1.4887-0.63755 2.7266-0.95312 3.668-0.27262 0.81326-0.52418 1.2863-0.72266 1.5976-0.0762-0.29203-0.17187-0.68253-0.17187-1.5488 0-1.379-0.28879-3.8668-0.64649-5.6543-0.24787-1.2398-0.48033-2.0543-0.96289-2.5918-0.24129-0.26877-0.57764-0.44814-0.92773-0.48047-0.35009-0.0323-0.68962 0.0565-1.041 0.20313-1.7112 0.71357-6.7488 2.0902-11.939 3.3281-5.1907 1.238-10.606 2.362-13.168 2.6562-1.5614 0.1796-3.109 0.42448-4.3574 0.67578-0.62421 0.12566-1.174 0.25288-1.6172 0.37696-0.44321 0.12408-0.76303 0.22448-1.0254 0.38671-0.24679 0.15262-0.33175 0.3274-0.44922 0.54493-0.11746 0.21752-0.23194 0.48431-0.35352 0.80468-0.24316 0.64076-0.50719 1.4947-0.7832 2.5137-0.552 2.038-1.1474 4.7324-1.6582 7.6094-0.50021 2.8186-0.80306 4.1037-1.0977 5.332-0.16326-3.5566-0.37654-6.789-0.67773-9.0723-0.16969-1.2864-0.35871-2.3432-0.56641-3.1543-0.20771-0.81113-0.38223-1.3646-0.76562-1.748-0.33057-0.33057-0.72791-0.36818-1.2344-0.40234-0.50648-0.0342-1.1352-0.01-1.8887 0.0664-1.5069 0.15251-3.5024 0.51206-5.8281 1.0605l-7.8711 1.8555-1.1797 5.8906c-0.60331 3.0083-1.0671 5.2676-1.4609 6.8047-0.19692 0.76854-0.37703 1.3587-0.53907 1.7539-0.50356 0.54676-0.39246 0.23682-0.77539-0.54883-0.43979-1.0356-0.99096-2.7266-1.709-4.9883-0.48295-1.5218-0.99723-2.9873-1.4394-4.1309-0.22112-0.57177-0.42452-1.063-0.59961-1.4453s-0.27741-0.62463-0.47852-0.84766c-0.20157-0.22382-0.39553-0.23668-0.58203-0.26171-0.18649-0.025-0.38837-0.0269-0.62305-0.0156-0.46937 0.0226-1.0639 0.10137-1.7559 0.2207-1.384 0.23867-3.1526 0.64251-4.9434 1.1152s-3.599 1.0125-5.0566 1.5234c-0.72881 0.25547-1.3695 0.50335-1.8828 0.73633-0.51332 0.23299-0.88909 0.42229-1.1641 0.69726-0.15731 0.15731-0.21578 0.29665-0.31055 0.49415-0.0948 0.19749-0.19644 0.44178-0.30859 0.73437-0.2243 0.58519-0.48809 1.3612-0.77735 2.2812-0.57853 1.84-1.2587 4.2519-1.9043 6.8047-0.64971 2.5708-1.1234 4.503-1.5156 5.7344-0.19613 0.61567-0.37863 1.0602-0.51562 1.2852-0.024 0.0395-0.0256 0.0318-0.0449 0.0566-9e-3 -0.0248-0.0717-0.0533-0.2246-0.33594-0.1939-0.35841-0.42835-0.92066-0.69922-1.668-0.54173-1.4946-1.236-3.734-2.1797-6.7266-0.45949-1.4567-0.93867-2.7812-1.3496-3.7539-0.20547-0.48633-0.39224-0.88305-0.56055-1.1797-0.0842-0.14831-0.16197-0.27076-0.2539-0.38086-0.0919-0.1101-0.17217-0.28516-0.5293-0.28516-0.33269 0-0.74432 0.0765-1.2988 0.20117-0.5545 0.12468-1.2303 0.30133-1.9902 0.51563-1.5198 0.42861-3.371 1.0079-5.1934 1.6172-1.8224 0.60931-3.6144 1.2487-5.0215 1.7988-0.70354 0.27504-1.31 0.52728-1.7812 0.7461s-0.77587 0.35382-1.0293 0.60156c-0.29006 0.28396-0.4536 0.65961-0.6543 1.1797-0.20094 0.52074-0.40374 1.1737-0.60156 1.9258-0.39563 1.5041-0.77094 3.4012-1.0371 5.3457l-0.97461 7.1172 6.3203 18.611c3.4551 10.172 7.8681 23.45 9.8047 29.492 2.5786 8.0475 4.1547 12.672 5.4512 15.348 0.64824 1.3379 1.2281 2.2018 1.877 2.7539 0.64887 0.55208 1.3765 0.74721 2.1133 0.74805 0.71478 5.8e-4 2.0068-0.18839 3.6367-0.48438 1.6299-0.296 3.5629-0.70337 5.4141-1.1523l6.9726-1.6914 1.6484-5.4004c0.86596-2.8395 1.9087-6.8796 2.332-9.041l0.43945-2.2461 2.4473 5.8437c0.87073 2.0806 1.4894 3.6384 2.1641 4.8086 0.67464 1.1702 1.4484 1.9762 2.543 2.3711 2.1891 0.78976 5.3322 0.0802 11.871-1.0976l6.4336-1.1602 2.6523-7.9375c2.4163-7.23 2.5313-8.4513 1.6758-18.357v-2e-3c-0.4195-4.8532-0.70613-16.139-0.7832-25.355-0.0301-3.6021 2e-3 -6.3062 0.0391-8.7754 0.42494 3.2137 0.92247 6.9723 1.707 12.742 1.0466 7.6971 2.4148 18.274 3.0391 23.492 0.62707 5.2423 1.7085 11.979 2.4219 15.053 0.3665 1.5802 0.55207 2.7624 0.94727 3.6914 0.3952 0.92903 1.1064 1.5911 2.2305 1.8301 2.2481 0.47797 6.1748-0.23666 14.795-1.4356 1.8083-0.25149 3.251-0.5403 4.8555-0.82031 1.1668-0.20364 2.568-0.39687 3.5312-0.5957 1.1439-0.23611 2.1145-0.46171 2.8535-0.66797 0.36951-0.10313 0.68111-0.20175 0.9336-0.29687 0.25249-0.0951 0.43571-0.16605 0.61914-0.31836 0.26079-0.21655 0.49359-0.53081 0.79687-0.97461 0.30329-0.44379 0.65206-1.0062 1.0293-1.6543 0.7545-1.2961 1.62-2.9331 2.4219-4.6113 0.79252-1.6579 1.4388-2.8843 1.9492-3.6387 0.2552-0.37717 0.47896-0.63387 0.63477-0.75976s0.18651-0.10487 0.17578-0.10742c-0.0107-3e-3 0.068 0.0254 0.1875 0.23242 0.11947 0.207 0.25579 0.55752 0.38672 1.0312 0.26186 0.94746 0.51253 2.3867 0.77538 4.2969l0.72851 5.3066 7.6172-0.54492c3.932-0.281 10.975-0.78318 15.65-1.1172l8.7891-0.62695 3.1172-6.4375c0.82252-1.6975 1.6013-3.2872 2.1914-4.4824 0.29505-0.59759 0.5418-1.0965 0.72461-1.459 0.0862-0.17093 0.0926-0.17905 0.15039-0.28907 0.12341 0.0709 0.2508 0.14265 0.44336 0.28321 0.5176 0.37781 1.2228 0.97444 1.9629 1.6836 4.4743 4.284 12.165 7.2628 18.795 7.3027 2.576 0.0156 4.1466-0.0521 5.5059-0.53906 1.3592-0.48695 2.4214-1.375 3.9629-2.8691 1.9591-1.8995 4.8094-5.9647 6.4707-9.1875l1.0805-5.8901c0.60957-3.3228 6.8814 10.658 9.6285 12.562 3.6217 2.5104 5.3829 2.9863 11.135 2.9883 5.7705 3e-3 7.5081-0.46823 11.18-3.0098 6.4211-4.4458 10.669-9.2462 14.26-16.111l2.2109-4.2285-0.65625 24.334 16.836 0.60156 5.5254-6.8125c1.5199-1.8732 2.6817-3.2665 3.5625-4.123 0.44037-0.42829 0.81203-0.71874 1.0918-0.86914s0.43054-0.15856 0.53711-0.12695c0.10657 0.0316 0.25032 0.13361 0.42578 0.42578 0.17547 0.29217 0.35956 0.75271 0.53906 1.3672 0.359 1.229 0.70665 3.0714 1.1387 5.5234l1.0957 6.2129 5.9141 1.1894c1.5385 0.30922 3.0219 0.58894 4.1758 0.79297 0.57693 0.10202 1.0728 0.18432 1.4531 0.24219 0.3803 0.0579 0.60364 0.0957 0.8086 0.0957 0.32329 0 0.43726-0.13514 0.58789-0.25586 0.15064-0.12072 0.30402-0.27196 0.47851-0.46094 0.34898-0.37795 0.77026-0.90021 1.25-1.5352 0.95947-1.2699 2.1463-2.9884 3.3457-4.8242 2.3266-3.561 4.6256-7.4364 5.4551-9.4922 0.0669 1.2008 0.054 3.2251-0.0898 7.1543l-0.40235 11.023 14.389 3.0879 3.4297-4.5762c0.88219-1.1774 1.7054-2.2451 2.3242-3.0215-0.11617 0.60284-0.24107 1.242-0.42578 2.0371-0.73612 3.1693-1.0964 4.9791-0.76758 6.2324 0.1644 0.62665 0.58496 1.1102 1.1406 1.3457 0.55566 0.23555 1.2097 0.28516 2.0156 0.28516 0.30678 0 1.057 0.0874 2.0547 0.25586 0.99767 0.16842 2.2653 0.41415 3.7129 0.71679 2.8953 0.6053 6.5071 1.4416 10.131 2.3613l13.506 3.4258 6.0273-7.1074c5.9619-7.0299 8.8673-13.79 9.4863-22.115h-2e-3c0.11858-1.59 0.17491-2.5565-0.30664-3.2949-0.24078-0.36922-0.6189-0.61244-1.0527-0.75977-0.43383-0.14732-0.93967-0.22454-1.5703-0.29687-0.72719-0.0837-1.3898-0.22575-1.8418-0.375-0.17298-0.0571-0.27619-0.10798-0.37109-0.15625 0.0407-0.076 0.0762-0.14623 0.14063-0.25391 0.18811-0.31457 0.46847-0.74774 0.8164-1.2578 0.69586-1.0202 1.6632-2.3536 2.7246-3.748 3.2141-4.2216 4.2683-6.8441 5.6816-14.107 1.3316-6.8403 2.5123-9.9184 5.4883-14.316 2.9842-4.4127 4.3305-7.8737 5.6895-14.619 0.6006-2.9774 0.96381-5.2574 1.0898-6.9082 0.063-0.82541 0.0677-1.4934 6e-3 -2.0293-0.0619-0.5359-0.16959-0.9606-0.48633-1.2773-0.24004-0.24004-0.45908-0.29642-0.8125-0.42773-0.35342-0.13132-0.81188-0.27678-1.3672-0.43555-1.1106-0.31753-2.6083-0.69178-4.3691-1.0996-3.5216-0.81566-8.0898-1.7646-12.641-2.6426-4.5508-0.87797-9.0822-1.6837-12.531-2.2129-1.7245-0.26458-3.1774-0.45989-4.2363-0.56055-0.52946-0.0503-0.95968-0.0777-1.291-0.0762-0.16566 7.8e-4 -0.30392 7e-3 -0.4375 0.0293-0.13357 0.0219-0.28277 2e-3 -0.47851 0.24414-2.1107 2.6124-4.9688 7.187-7.4473 11.652-2.4556 4.4242-4.5051 8.6487-5.0703 10.895-0.026-1.8379 3e-3 -4.3159 0.20703-10.236 0.17969-5.2295 0.22972-9.1712 0.14844-11.824-0.0406-1.3265-0.11284-2.3277-0.22461-3.0293-0.0559-0.35077-0.11607-0.62472-0.21289-0.85743-0.0484-0.11635-0.10415-0.22536-0.20508-0.33398s-0.28334-0.2207-0.48828-0.2207c-0.035 0-0.43967-0.038-0.98047-0.11133-0.5408-0.0733-1.2647-0.17974-2.1172-0.31055-1.705-0.26162-3.9276-0.62095-6.2598-1.0098-4.6644-0.7776-9.7758-1.6764-12.057-2.1465-0.87415-0.18026-1.7342-0.17745-2.6074 0.12695-0.87319 0.30441-1.7443 0.89171-2.7285 1.8281-1.9685 1.8728-4.4223 5.1609-8.2461 10.684v2e-3c-1.466 2.1179-2.5164 3.7422-3.2949 4.6953-0.38926 0.47653-0.71723 0.77684-0.92187 0.88671-0.20465 0.10988-0.20638 0.10529-0.34766 6e-3 -0.14128-0.0997-0.38511-0.41234-0.64453-0.96484-0.25943-0.5525-0.54571-1.3315-0.86914-2.3379-0.64687-2.0128-1.4497-4.9368-2.5898-8.8867-1.3565-4.6995-2.0138-7.0544-2.9356-8.5019-0.46087-0.72376-1.0142-1.2113-1.6875-1.5586-0.67328-0.34732-1.4512-0.57358-2.459-0.87109-2.3412-0.69201-8.199-1.4701-13.221-1.7949z" style="fill-rule:evenodd;fill:#fff;stop-color:#000000"/>
  <path d="m258.2 0-2.9336 6.4941c-1.5402 3.4094-3.3183 7.6779-3.9746 9.5586l-0.80859 2.3223-2.0117-3.4101c-3.4714-5.8891-7.4116-9.4706-13.291-12.07-7.1126-3.1459-14.609-3.7227-18.646-1.1484-12.48 7.9589-21.73 27.322-21.73 45.236 0 2.9886-0.092 5.0837-0.28516 6.3965-0.0966 0.65641-0.22384 1.1176-0.34375 1.3672-0.1199 0.24963-0.15854 0.23229-0.16015 0.23242-0.67706 0.05322-2.3693 0.16613-3.7422 0.25-1.0969 0.06596-1.9925 0.38659-2.666 1.2148-0.67351 0.82825-1.1558 2.0704-1.7793 4.0527-0.79513 2.5272-1.6864 3.8692-2.1992 4.1348-0.25643 0.1328-0.37926 0.12255-0.65235-0.08398-0.2731-0.20654-0.62231-0.67721-0.95703-1.4004-1.3389-2.8927-2.4909-9.6352-2.9336-19.199-0.20221-4.3613-0.26761-7.5309-0.19727-9.5312 0.0305-0.86771 0.0988-1.4112 0.17188-1.8164 0.14282 0.19628 0.24525 0.27612 0.40234 0.625 0.27594 0.61282 0.53036 1.3979 0.68555 2.1738 0.13657 0.68183 0.26142 1.2223 0.43945 1.6719 0.17804 0.44956 0.42885 0.82648 0.80274 1.0684 0.74777 0.48375 1.6881 0.37412 3.1953 0.16601 1.7995-0.24895 4.5854-0.59077 6.1699-0.75977 1.3582-0.14512 2.3893-0.50765 3.248-1.7168s1.6346-3.1857 2.9414-6.7402c1.3154-3.5752 2.0268-5.6774 2.2871-7.5742 0.2603-1.8968 0.0528-3.5412-0.42187-6.1094-1.0168-5.4993-3.6145-9.3088-7.5977-11.168-3.9832-1.8592-9.2635-1.7716-15.641 0.23438-7.2711 2.2865-16.784 10.769-21.258 18.846-1.4355 2.5905-2.2162 4.1074-2.5977 6.5938-0.38146 2.4864-0.38202 5.9062-0.35352 12.471 0.016 3.7193 0.10859 7.5664 0.24414 10.773 0.13556 3.2071 0.30748 5.748 0.50782 6.959l0.59961 3.6152-4.7031 0.36523c-1.4396 0.11177-2.771 0.20223-3.7539 0.25781-0.49144 0.02779-0.89664 0.04613-1.1797 0.05469-0.0401 0.0012-0.0567 0.0012-0.0918 2e-3 -0.0414-0.23542-0.0954-0.59114-0.1543-1.0469-0.11826-0.9148-0.26602-2.2308-0.43359-3.8418-0.33513-3.222-0.74825-7.6216-1.168-12.367-0.83944-9.4911-1.7019-20.376-2-26.008-0.18357-3.4763-0.45625-6.5066-0.77148-8.75-0.15762-1.1217-0.32472-2.0452-0.50196-2.7422-0.0886-0.34848-0.17866-0.63934-0.27929-0.88086-0.10064-0.24152-0.18838-0.43916-0.40821-0.61328h-2e-3c-0.32241-0.25487-0.70642-0.33761-1.2109-0.41016-0.50451-0.0725-1.1259-0.10495-1.8535-0.10156-1.4552 7e-3 -3.3361 0.15611-5.4668 0.44531-6.0492 0.82229-8.8687 1.0537-10.551 2.0898-0.84106 0.51809-1.3357 1.273-1.6621 2.25s-0.52884 2.1989-0.87109 3.8555c-0.3076 1.4887-0.63756 2.7266-0.95313 3.668-0.27262 0.81326-0.52418 1.2863-0.72266 1.5977-0.0762-0.29203-0.17187-0.68253-0.17187-1.5488 0-1.379-0.28879-3.8668-0.64649-5.6543-0.24787-1.2398-0.48033-2.0542-0.96289-2.5918-0.24129-0.26877-0.57764-0.44814-0.92773-0.48047-0.35009-0.0323-0.68962 0.0565-1.041 0.20312-1.7112 0.71357-6.7488 2.0902-11.939 3.3281s-10.606 2.362-13.168 2.6562c-1.5614 0.1796-3.109 0.42448-4.3574 0.67578-0.62421 0.12566-1.174 0.25287-1.6172 0.37695-0.44321 0.12408-0.76303 0.22449-1.0254 0.38672-0.24679 0.15262-0.33175 0.32739-0.44922 0.54492-0.11746 0.21752-0.23193 0.48432-0.35351 0.80469-0.24316 0.64076-0.5072 1.4947-0.78321 2.5137-0.552 2.038-1.1474 4.7324-1.6582 7.6094-0.50021 2.8186-0.80305 4.1037-1.0976 5.332-0.16326-3.5566-0.37655-6.789-0.67774-9.0723-0.16969-1.2864-0.35871-2.3432-0.56641-3.1543-0.20771-0.81113-0.38223-1.3646-0.76562-1.748-0.33057-0.33057-0.72791-0.36819-1.2344-0.40235-0.50648-0.0342-1.1352-0.01-1.8887 0.0664-1.5069 0.15251-3.5024 0.51207-5.8281 1.0606l-7.8711 1.8555-1.1797 5.8906c-0.60331 3.0083-1.0671 5.2676-1.4609 6.8047-0.19692 0.76854-0.37702 1.3587-0.53906 1.7539-0.12928 0.31525-0.21169 0.39131-0.2461 0.43945-0.12481-0.15273-0.31573-0.48539-0.52929-0.98828-0.43979-1.0356-0.99097-2.7266-1.709-4.9883-0.48295-1.5218-0.99723-2.9873-1.4394-4.1309-0.22111-0.57177-0.42452-1.063-0.59961-1.4453s-0.27741-0.62462-0.47852-0.84765c-0.20157-0.22382-0.39553-0.23669-0.58203-0.26172-0.18649-0.025-0.38836-0.0269-0.62304-0.0156-0.46937 0.0226-1.0639 0.10138-1.7559 0.22071-1.384 0.23867-3.1526 0.64251-4.9434 1.1152s-3.599 1.0125-5.0566 1.5234c-0.72881 0.25547-1.3695 0.50335-1.8828 0.73633-0.51332 0.23299-0.88909 0.42229-1.1641 0.69726-0.15731 0.15731-0.21578 0.29664-0.31055 0.49414-0.0948 0.19749-0.19644 0.44179-0.30859 0.73438-0.2243 0.58519-0.48808 1.3612-0.77734 2.2812-0.57853 1.84-1.2587 4.2519-1.9043 6.8047-0.64971 2.5708-1.1234 4.503-1.5156 5.7344-0.19613 0.61567-0.37864 1.0602-0.51563 1.2852-0.024 0.03949-0.0256 0.03181-0.0449 0.05664-9e-3 -0.02479-0.0717-0.0533-0.22461-0.33594-0.19389-0.35841-0.42835-0.92067-0.69922-1.668-0.54173-1.4946-1.236-3.734-2.1797-6.7266-0.45949-1.4567-0.93867-2.7812-1.3496-3.7539-0.20547-0.48633-0.39223-0.88306-0.56053-1.1797-0.0842-0.14831-0.16199-0.27075-0.25392-0.38085-0.0919-0.1101-0.17217-0.28516-0.5293-0.28516-0.33269 0-0.74432 0.0765-1.2988 0.20117-0.5545 0.12468-1.2304 0.30133-1.9902 0.51563-1.5198 0.42861-3.371 1.0079-5.1934 1.6172-1.8224 0.60931-3.6144 1.2487-5.0215 1.7988-0.70354 0.27504-1.31 0.52728-1.7812 0.7461-0.47129 0.21882-0.77589 0.35382-1.0293 0.60156-0.29006 0.28396-0.4536 0.65961-0.6543 1.1797-0.20093 0.52074-0.40374 1.1737-0.60156 1.9258-0.39563 1.5041-0.77093 3.4012-1.0371 5.3457l-0.97461 7.1172 6.3203 18.611c3.4551 10.172 7.8681 23.45 9.8047 29.492 2.5786 8.0475 4.1547 12.672 5.4512 15.348 0.64824 1.3379 1.2281 2.2018 1.877 2.7539 0.64887 0.55207 1.3765 0.74721 2.1133 0.74804 0.71478 5.8e-4 2.0068-0.18837 3.6367-0.48437 1.6299-0.296 3.5629-0.70338 5.4141-1.1524l6.9726-1.6914 1.6484-5.4004c0.86597-2.8395 1.9087-6.8796 2.332-9.041l0.43947-2.2461 2.4473 5.8438c0.87073 2.0806 1.4894 3.6384 2.1641 4.8086 0.67464 1.1702 1.4484 1.9762 2.543 2.3711 2.1891 0.78975 5.3322 0.0802 11.871-1.0977l6.4336-1.1602 2.6524-7.9375c2.4163-7.23 2.5313-8.4513 1.6758-18.357v-2e-3c-0.4195-4.8532-0.70614-16.139-0.78321-25.355-0.0301-3.6021 2e-3 -6.3062 0.0391-8.7754 0.42494 3.2137 0.92247 6.9723 1.707 12.742 1.0466 7.6971 2.4148 18.274 3.0391 23.492 0.62707 5.2423 1.7085 11.979 2.4219 15.053 0.3665 1.5802 0.55207 2.7624 0.94727 3.6914s1.1064 1.5911 2.2305 1.8301c2.2481 0.47796 6.1748-0.23665 14.795-1.4356 3.1234-0.43437 6.0989-0.94378 8.3867-1.416 1.1439-0.23612 2.1145-0.4617 2.8535-0.66797 0.36951-0.10314 0.6811-0.20176 0.93359-0.29688 0.25249-0.0951 0.43571-0.16605 0.61914-0.31836 0.26079-0.21655 0.49359-0.53081 0.79687-0.97461 0.30329-0.44379 0.65206-1.0062 1.0293-1.6543 0.75449-1.2961 1.62-2.9331 2.4219-4.6113 0.79252-1.6579 1.4388-2.8843 1.9492-3.6387 0.2552-0.37717 0.47895-0.63388 0.63476-0.75977s0.18651-0.10487 0.17578-0.10742c-0.0107-0.0026 0.068 0.02542 0.1875 0.23242 0.11947 0.207 0.25579 0.55752 0.38672 1.0312 0.26186 0.94746 0.51253 2.3867 0.77539 4.2969l0.72852 5.3066 7.6172-0.54493c3.932-0.28099 10.975-0.78318 15.65-1.1172l8.7891-0.62696 3.1172-6.4375c0.82252-1.6975 1.6013-3.2872 2.1914-4.4824 0.29505-0.5976 0.5418-1.0965 0.72461-1.459 0.0862-0.17092 0.0926-0.17905 0.15039-0.28906 0.12341 0.07093 0.2508 0.14264 0.44336 0.2832 0.5176 0.37782 1.2228 0.97444 1.9629 1.6836 4.4743 4.284 12.165 7.2628 18.795 7.3027 2.576 0.01557 4.1466-0.05211 5.5059-0.53906 1.3592-0.48695 2.4214-1.375 3.9629-2.8691 1.9591-1.8995 4.8094-5.9647 6.4707-9.1875l2.498-4.8437 1.7168 3.7422c1.4087 3.0705 3.7471 5.87 6.4941 7.7734 3.6217 2.5104 5.3829 2.9863 11.135 2.9883 5.7705 3e-3 7.5081-0.46822 11.18-3.0098 6.4211-4.4458 10.669-9.2462 14.26-16.111l2.2109-4.2285-0.65625 24.334 16.836 0.60156 5.5254-6.8125c1.5199-1.8732 2.6817-3.2665 3.5625-4.123 0.44037-0.42829 0.81203-0.71874 1.0918-0.86914 0.27977-0.1504 0.43054-0.15856 0.53711-0.12695 0.10657 0.0316 0.25032 0.13361 0.42578 0.42578 0.17547 0.29217 0.35956 0.75272 0.53906 1.3672 0.359 1.2289 0.70666 3.0714 1.1387 5.5234l1.0957 6.2129 5.9141 1.1895c1.5385 0.30921 3.0219 0.58894 4.1758 0.79297 0.57693 0.10201 1.0728 0.18431 1.4531 0.24218 0.3803 0.0579 0.60364 0.0957 0.8086 0.0957 0.32329 0 0.43726-0.13514 0.58789-0.25586 0.15064-0.12071 0.30402-0.27196 0.47851-0.46093 0.34898-0.37795 0.77026-0.90022 1.25-1.5352 0.95947-1.2699 2.1463-2.9884 3.3457-4.8242 2.3266-3.561 4.6256-7.4364 5.4551-9.4922 0.0669 1.2008 0.054 3.2251-0.0898 7.1543l-0.40235 11.023 14.389 3.0879 3.4297-4.5762c0.88219-1.1774 1.7054-2.2451 2.3242-3.0215-0.11617 0.60284-0.24107 1.242-0.42578 2.0371-0.73612 3.1693-1.0964 4.9791-0.76758 6.2324 0.1644 0.62665 0.58496 1.1102 1.1406 1.3457 0.55566 0.23555 1.2097 0.28515 2.0156 0.28515 0.30678 0 1.057 0.0874 2.0547 0.25586 0.99767 0.16842 2.2653 0.41415 3.7129 0.7168 2.8953 0.6053 6.5071 1.4415 10.131 2.3613l13.506 3.4258 6.0273-7.1074c5.9619-7.0299 8.8673-13.79 9.4863-22.115h-2e-3c0.11858-1.59 0.17491-2.5565-0.30664-3.2949-0.24078-0.36922-0.6189-0.61244-1.0527-0.75977-0.43384-0.14733-0.93968-0.22454-1.5703-0.29688-0.72719-0.08369-1.3898-0.22574-1.8418-0.375-0.17299-0.05713-0.2762-0.10798-0.3711-0.15625 0.0407-0.07603 0.0762-0.14623 0.14063-0.25391 0.18811-0.31457 0.46847-0.74774 0.8164-1.2578 0.69586-1.0201 1.6632-2.3536 2.7246-3.748 3.2141-4.2216 4.2683-6.8441 5.6816-14.107 1.3316-6.8403 2.5123-9.9184 5.4883-14.316 2.9842-4.4127 4.3305-7.8737 5.6895-14.619 0.6006-2.9774 0.96381-5.2574 1.0898-6.9082 0.063-0.82541 0.0677-1.4934 6e-3 -2.0293-0.0619-0.5359-0.16959-0.9606-0.48633-1.2773-0.24004-0.24004-0.45907-0.29643-0.8125-0.42774-0.35342-0.13132-0.81188-0.27677-1.3672-0.43554-1.1106-0.31753-2.6083-0.69178-4.3691-1.0996-3.5216-0.81566-8.0898-1.7646-12.641-2.6426-4.5508-0.87797-9.0822-1.6837-12.531-2.2129-1.7245-0.26458-3.1774-0.45989-4.2363-0.56055-0.52946-0.0503-0.95968-0.0777-1.291-0.0762-0.16567 7.8e-4 -0.30393 7e-3 -0.4375 0.0293-0.13358 0.0219-0.28277 2e-3 -0.47852 0.24414-2.1106 2.6124-4.9688 7.187-7.4473 11.652-2.4557 4.4242-4.5051 8.6487-5.0703 10.895-0.026-1.8379 3e-3 -4.3159 0.20703-10.236 0.17969-5.2295 0.22972-9.1712 0.14844-11.824-0.0406-1.3265-0.11283-2.3277-0.22461-3.0293-0.0559-0.35077-0.11607-0.62471-0.21289-0.85742-0.0484-0.11635-0.10415-0.22537-0.20508-0.33399-0.10092-0.10862-0.28334-0.2207-0.48828-0.2207-0.035 0-0.43967-0.038-0.98047-0.11133-0.54079-0.0733-1.2647-0.17974-2.1172-0.31055-1.705-0.26162-3.9276-0.62095-6.2598-1.0098-4.6644-0.7776-9.7758-1.6764-12.057-2.1465-0.87415-0.18026-1.7342-0.17744-2.6074 0.12696-0.87319 0.30441-1.7443 0.8917-2.7285 1.8281-1.9685 1.8728-4.4223 5.1609-8.2461 10.684v2e-3c-1.466 2.1179-2.5164 3.7422-3.2949 4.6953-0.38926 0.47653-0.71724 0.77685-0.92188 0.88672-0.20465 0.10988-0.20637 0.10543-0.34765 6e-3 -0.14128-0.0997-0.38512-0.41234-0.64454-0.96484-0.25943-0.5525-0.54571-1.3315-0.86914-2.3379-0.64687-2.0128-1.4497-4.9368-2.5898-8.8867-1.3565-4.6995-2.0138-7.0545-2.9356-8.502-0.46087-0.72376-1.0142-1.2113-1.6875-1.5586-0.67328-0.34732-1.4512-0.57358-2.459-0.87109-2.3412-0.69201-8.199-1.4701-13.221-1.7949zm4.8828 2.8848c0.56697-0.036 1.2875-0.0145 2.1836 0.0703 1.7922 0.16959 4.2691 0.55846 7.6426 1.0449 2.1534 0.31035 4.2544 0.59875 5.9062 0.81055 1.6519 0.21181 2.8005 0.34796 3.2461 0.36133 0.0757 2e-3 0.38434 0.16469 0.67187 0.57422 0.28752 0.40954 0.553 1.008 0.69531 1.6562 0.94436 4.2878 3.2569 12.003 5.4844 18.762 1.1137 3.3795 2.2065 6.5147 3.0957 8.8594 0.44461 1.1724 0.8373 2.1462 1.1621 2.8613 0.1624 0.35757 0.30737 0.64967 0.43946 0.87891 0.1321 0.22921 0.18987 0.39032 0.45898 0.55664 0.18585 0.11483 0.43565 0.0871 0.56445 0.0273s0.20161-0.13045 0.27149-0.20313c0.13976-0.14536 0.25733-0.31905 0.39258-0.54296 0.2705-0.44782 0.58731-1.0884 0.94921-1.8945 0.72381-1.6122 1.6132-3.8791 2.5-6.4297 1.7568-5.0524 4.6049-11.855 6.2852-15.023l2.9394-5.543 3.6973 0.60547c2.2223 0.36291 7.1991 1.2207 11.047 1.9062l6.6172 1.1797 0.30664 4.0644c0.76093 10.115-1.9336 46.382-4.377 58.66-0.68476 3.4418-1.3578 6.6237-1.8906 8.9707-0.2664 1.1735-0.49726 2.1393-0.67578 2.8203-0.0893 0.34052-0.16645 0.6089-0.22461 0.79102-8e-3 0.02503-0.0123 0.03311-0.0195 0.05469-0.0714 2e-3 -0.13629 0.0045-0.24804 0-0.32382-0.01296-0.78935-0.05419-1.3398-0.11914-1.101-0.1299-2.5464-0.3513-3.9902-0.60156-1.4438-0.25026-2.8877-0.53018-3.9844-0.78125-0.54832-0.12553-1.0114-0.24436-1.334-0.34375-0.12043-0.03711-0.19702-0.06695-0.27149-0.0957-1e-3 -0.13973 1e-3 -0.32455 6e-3 -0.57617 0.0102-0.5493 0.0328-1.3478 0.0684-2.3535 0.0712-2.0115 0.1896-4.8554 0.3418-8.2285 0.30441-6.7463 0.74357-15.611 1.209-24.191 0.0863-1.5859 0.052-3.0038-0.0859-4.0781-0.0689-0.53715-0.16193-0.9861-0.29297-1.3496-0.13105-0.3635-0.27312-0.70847-0.70313-0.85156-0.30291-0.10118-0.55759 0.0458-0.70703 0.17188-0.14944 0.12606-0.26527 0.27688-0.39258 0.46484-0.25461 0.3759-0.53354 0.90642-0.85742 1.6035-0.64777 1.3942-1.4618 3.4481-2.416 6.082-1.9084 5.2679-4.3734 12.847-7.1172 21.969-1.442 4.7931-2.2938 7.1661-3.4043 7.9863-0.55523 0.41011-1.2055 0.53188-2.2441 0.42188-1.0386-0.11001-2.4216-0.47154-4.2539-0.98047l-3.217-0.89453-4.3144-17.984c-2.2347-9.3145-3.8634-15.469-5.0645-18.979-0.60051-1.7547-1.052-2.8271-1.5664-3.4199-0.1286-0.14819-0.26646-0.27498-0.45704-0.35742-0.19058-0.0824-0.45446-0.0901-0.65625 4e-3 -0.40358 0.18784-0.53474 0.53563-0.66796 0.94141-0.0652 0.19843-0.0954 0.41187-0.14454 0.76562-0.0491 0.35375-0.10412 0.81637-0.16406 1.3789-0.11988 1.1251-0.25961 2.6481-0.41211 4.4629-0.30501 3.6296-0.65718 8.4252-0.98437 13.516-0.32636 5.0854-0.65754 9.7461-0.92774 13.154-0.1351 1.7041-0.25546 3.0942-0.35156 4.0664-0.0481 0.48612-0.0908 0.86884-0.125 1.127-4e-3 0.02917-6e-3 0.03848-0.01 0.06445-0.0745 0.0025-0.12845 0.0067-0.23242 0.0059-0.36522-3e-3 -0.89359-0.02933-1.5352-0.07422-1.2831-0.08978-3.0235-0.25872-4.8984-0.48438l-6.416-0.77148-0.28125-9.0703c-0.16004-5.1616 0.40088-19.137 1.25-30.949 0.85045-11.831 1.5458-24.967 1.5449-29.285v-2e-3c-2.9e-4 -2.2524-0.0457-3.9129 0.082-5.041 0.0639-0.56431 0.172-0.99027 0.32227-1.291 0.15027-0.30074 0.32809-0.48485 0.61132-0.63281 0.28324-0.14796 0.6967-0.24137 1.2637-0.27734zm-42.084 0.33789c1.314-0.12136 2.8903-0.12596 4.5137 8e-3 3.2468 0.26717 6.7419 1.0248 8.9766 2.0977 5.3432 2.564 9.868 7.3764 13.623 14.568 1.5737 3.0146 2.3498 4.5822 2.7441 6.8516 0.39432 2.2694 0.40177 5.2983 0.36328 11.127-0.0679 10.233-0.43909 12.937-2.6484 19.172-3.3966 9.5887-7.329 16.164-11.805 19.822-4.4756 3.6582-9.4675 4.474-15.299 2.5371-4.5695-1.5176-7.7436-4.1928-10.031-8.918-2.2877-4.7252-3.6447-11.523-4.3945-21.148-0.98766-12.679 0.10228-26.393 2.666-34.096 2.0258-6.0883 4.0532-8.8247 8.3476-11.324 0.57772-0.3362 1.6294-0.57589 2.9434-0.69726zm-37.328 2.75c3.0366-0.12991 6.1024 0.21237 7.7676 0.9707 1.3503 0.61561 2.3063 1.5089 3.082 3.0274 0.77573 1.5185 1.3436 3.672 1.7988 6.707 0.3328 2.2182 0.40883 3.312 0.21875 3.6953-0.095 0.19164-0.2323 0.30655-0.60937 0.44727s-0.96158 0.26481-1.7559 0.42382c-2.788 0.5572-4.8542 0.72806-6.3223 0.52344-1.4681-0.20462-2.3147-0.73248-2.8906-1.6543-0.83476-1.337-2.1164-2.0897-3.4512-2.1602-1.3348-0.0704-2.7017 0.53894-3.7188 1.7715-0.20856 0.25287-0.30784 0.54509-0.41406 0.93164-0.10625 0.38655-0.19819 0.86274-0.28321 1.4238-0.17004 1.1222-0.30794 2.5864-0.41601 4.2969-0.21615 3.421-0.31247 7.821-0.29688 12.332 0.0156 4.5111 0.14384 9.1314 0.38477 12.99 0.24093 3.8588 0.57282 6.9158 1.0723 8.4746 0.85561 2.6698 1.9879 4.7304 3.2324 6.1699 1.2445 1.4396 2.6126 2.2739 3.957 2.3867 1.3445 0.11284 2.6102-0.56317 3.4531-1.8906 0.8429-1.3275 1.3242-3.2861 1.3242-5.8965v-3.0645h11v6.1133c0 5.9654-1.3651 10.251-4.127 13.066-2.7619 2.8156-6.9829 4.2275-12.877 4.2734-4.0012 0.0307-6.959-0.4165-9.1914-1.4395-2.2324-1.023-3.7707-2.6074-4.9863-4.9902-2.1764-4.2658-4.1658-13.636-5.3008-23.373-1.135-9.7369-1.4397-19.905-0.42383-25.834 0.88078-5.1419 1.9116-8.5492 3.6914-11.215 1.7798-2.6657 4.3313-4.6388 8.3691-6.8731 1.6317-0.90308 4.6763-1.5048 7.7129-1.6348zm73.715 1.6348 0.21484 6.4317c0.1607 4.8021-0.39897 18.158-1.248 29.564-0.85155 11.426-1.5488 24.119-1.5488 28.301 0 6.5339-0.34441 7.9825-3.0566 12.789-0.85418 1.5128-1.6642 2.8556-2.2754 3.7891-0.14137 0.21589-0.22422 0.31972-0.3418 0.48828-4e-3 -0.13693-0.0124-0.21568-0.0137-0.37695-7e-3 -0.90244 0.0227-2.1707 0.082-3.6816 0.11858-3.0218 0.35417-7.0176 0.64258-11.066 0.2884-4.0488 0.62949-8.1525 0.95703-11.393 0.16377-1.62 0.32444-3.0242 0.47266-4.0938 0.14822-1.0696 0.30973-1.8515 0.37695-2.0254 2.2827-5.9048 3.1923-18.985 2.0195-27.949-1.0925-8.3543-1.0798-8.5109 1.7246-15.68zm-122.81 2.3828c0.11522-0.0198 0.16414-9e-3 0.2207 0.0195 0.0566 0.0289 0.14087 0.0962 0.24609 0.27344 0.21046 0.35456 0.44798 1.1116 0.65235 2.3438 0.40874 2.4643 0.73769 6.8292 1.1465 14.084 0.47485 8.4272 1.1164 17.001 1.7617 23.959 0.6453 6.9578 1.2788 12.248 1.793 14.295 0.1441 0.5741 0.28479 1.0415 0.49414 1.4375 0.20936 0.39603 0.51219 0.72368 0.91016 0.91602 0.79592 0.38466 1.7867 0.29275 3.418 0.08789 1.9978-0.25022 5.9697-0.70893 8.8145-1.0176l4.6445-0.50586 0.30078 8.4453 0.30664 8.543-3.2402 0.54492c-2.7985 0.47089-9.5606 0.99361-15.625 1.3066-3.0322 0.15651-5.8985 0.26264-8.0234 0.28906-1.0625 0.01321-1.9397 0.0059-2.5508-0.02344-0.30554-0.01468-0.54588-0.03602-0.69336-0.05859-3e-3 -5.03e-4 -3e-3 -0.0014-6e-3 -2e-3 -0.0259-0.06546-0.0498-0.1142-0.0996-0.28906-0.0723-0.25399-0.15829-0.60171-0.25195-1.0273-0.18732-0.85127-0.40955-2.0159-0.65625-3.418-0.49341-2.8042-1.0824-6.5588-1.6856-10.707-1.2063-8.2964-2.4695-18.167-3.1426-25.156-0.82126-8.5277-1.9107-19.099-2.4219-23.508-0.25396-2.191-0.42993-4.2401-0.50977-5.7656-0.0399-0.76278-0.055-1.3976-0.0449-1.8418 5e-3 -0.21694 0.0171-0.38588 0.0312-0.49414 0.0979-0.0387 0.24953-0.0904 0.43945-0.14649 0.37986-0.11224 0.91537-0.24812 1.5586-0.39453 1.2864-0.29284 3.0056-0.62983 4.8359-0.93945 3.677-0.62299 6.9922-1.1842 7.377-1.25zm29.354 4.8867c-0.2126 0.72141-0.47921 1.5747-0.83594 2.584-1.096 3.1029-1.7591 8.1637-2.0039 14.264s-0.0598 13.223 0.5957 20.367c0.30624 3.3382 0.5155 6.5533 0.60742 9.0332 0.046 1.24 0.0623 2.2964 0.0469 3.0879-8e-3 0.39576-0.0223 0.726-0.0449 0.97266-0.0227 0.24666-0.0655 0.42616-0.0684 0.43359-0.19229 0.49986-0.41961 0.83821-0.60938 1.0195-0.19003 0.18158-0.30995 0.19565-0.36523 0.1875-0.0553-0.0082-0.1413-0.04162-0.25-0.25781-0.1087-0.21619-0.20117-0.59779-0.20117-1.125 0-0.78018-0.2668-1.4762-0.82813-1.9375-0.56133-0.46126-1.3398-0.691-2.3535-0.80859-1.1246-0.12978-1.6512-0.31307-2.0371-0.79688s-0.67399-1.4255-0.97071-3.1094c-0.1813-1.0307-0.36822-3.4434-0.50586-6.4141-0.13763-2.9707-0.23062-6.5236-0.24609-9.9355-0.0324-6.9602 0.19904-11.204 1.2344-14.629 1.0353-3.4246 2.8758-6.0869 6.1699-9.9355 0.97874-1.1436 1.9035-2.1824 2.5996-2.9316 0.0272-0.0293 0.0399-0.04 0.0664-0.0684zm-54.742 0.125c0.31389 0.0123 0.54986 0.0711 0.72656 0.16796 0.3534 0.19381 0.60886 0.58464 0.82617 1.4043 0.21731 0.81965 0.36504 2.015 0.53516 3.6074 0.33873 3.1698 0.83302 7.1681 1.1035 8.9258l0.41016 2.666-6.7891 1.0977c-3.3392 0.54006-5.7648 0.88662-7.5352 1.2188-1.7704 0.33214-2.8957 0.62803-3.6582 1.1875-0.76253 0.55947-1.0229 1.421-1.002 2.4336 0.0209 1.0126 0.25177 2.2716 0.44727 4.0234 0.19228 1.721 0.46073 3.3794 0.74219 4.6797 0.14072 0.65011 0.28474 1.2085 0.42773 1.6504 0.14299 0.44193 0.22836 0.74343 0.49609 1.0176 0.29185 0.29755 0.61901 0.33892 1.0234 0.39062 0.40443 0.05171 0.89297 0.06247 1.4531 0.03906 1.1203-0.04682 2.5219-0.23158 3.9668-0.54102 2.3646-0.50733 4.1294-0.88669 5.4258-1.0254 1.2964-0.1387 2.0782-0.02991 2.584 0.31445 0.50575 0.34436 0.86237 1.0016 1.1562 2.2188s0.50978 2.9439 0.79883 5.2578c0.19786 1.5839 0.36963 2.7416 0.36914 3.543s-0.12506 1.1726-0.51367 1.4922c-0.38862 0.31955-1.1727 0.59273-2.5 0.83203-1.3273 0.2393-3.1801 0.4593-5.6934 0.78516l-5.1856 0.67383 0.0156 4.6289c6e-3 1.6752 0.0291 2.9563 0.23243 3.9629 0.20336 1.0066 0.64552 1.7914 1.4414 2.1992s1.8217 0.45142 3.2324 0.31836c1.4107-0.13306 3.225-0.45928 5.6055-0.9082 2.4108-0.45467 4.2305-0.78436 5.5781-0.9043 1.3476-0.11994 2.1957-0.01518 2.6992 0.27344 0.50354 0.28862 0.79266 0.77958 0.99609 1.7559 0.20343 0.97628 0.27968 2.3818 0.35156 4.2578 0.10005 2.6131 0.21924 5.516 0.26563 6.4629 0.011 0.22414-0.0191 0.33461-0.25391 0.54688-0.23484 0.21227-0.70963 0.47539-1.4883 0.75-1.5573 0.54921-4.2996 1.1662-8.7715 2.0371-6.0438 1.1778-12.867 2.3868-15.086 2.6758l-3.6348 0.47461-2.1504-14.154c-1.2242-8.0511-3.2792-21.388-4.5684-29.639-1.2892-8.2451-2.6424-17.708-3.002-20.977l-0.61133-5.541 9.8926-1.8516c5.7035-1.0673 12.128-2.4866 14.404-3.1953l-0.15235-0.48828c7.8e-4 -2.4e-4 1e-3 2.4e-4 2e-3 0l0.15234 0.48828c1.7448-0.54367 3.0658-0.93859 4.041-1.1211 0.48763-0.0913 0.87946-0.12554 1.1934-0.11328zm97.768 0.22265c-0.19064 0.70302-0.44394 1.5603-0.81836 2.7539-1.0173 3.2437-1.6912 9.4216-1.9785 16.078-0.28729 6.6566-0.17346 13.753 0.4668 18.73 0.42959 3.34 0.43856 5.3705 0.29687 7.1289 0.0265 0.45518 0.0117 0.91632-0.084 1.3828 0.0598-0.40473 0.0484-0.94131 0.084-1.3828-0.15709-2.6988-2.3408-5.0371-5.3438-5.0371-0.53778 0-0.88397-0.03918-1.0566-0.12695-0.17267-0.08777-0.29404-0.21614-0.42188-0.70898-0.2557-0.98569-0.29501-3.1951-0.29101-7.4141 9e-3 -10.403 3.5216-22.875 8.6035-30.631 0.24173-0.36893 0.35375-0.5006 0.54297-0.77344zm141.95 2.0176c0.58763 0.17537 2.5381 0.58248 5.3945 1.1562 2.8564 0.57376 6.5516 1.2932 10.4 2.0195 3.8423 0.72451 7.5194 1.4811 10.342 2.1152 1.4112 0.31708 2.609 0.60249 3.5039 0.83789s1.5413 0.45908 1.625 0.5039c0.35119 0.18778 0.55259 0.33495 0.66797 0.50196 0.11538 0.16702 0.19051 0.3975 0.18945 0.86718-2e-3 0.93936-0.36929 2.7097-1.125 5.9258-0.44915 1.9116-0.92123 3.7138-1.3184 5.0703-0.19857 0.67829-0.3796 1.2454-0.52539 1.6523-0.0729 0.20346-0.13759 0.3681-0.1875 0.47852-0.0222 0.0491-4e-3 0.0242-0.0195 0.0488 0.0413-0.0121 0.0468-0.0118-0.0254 0.0606-0.0411 0.0411 6e-3 -0.0298 0.0254-0.0606-0.0305 9e-3 -0.0741 0.0246-0.15429 0.0234-0.18886-3e-3 -0.47689-0.0392-0.81641-0.11133-0.67905-0.14425-1.5724-0.42434-2.4824-0.80273v-2e-3c-2.0027-0.83125-6.517-1.7628-10.246-2.1582l-7.1484-0.75781-0.72657 3.2988c-0.34054 1.5482-1.0374 4.1455-1.5352 5.7168-0.38796 1.2267-0.66963 2.1794-0.73242 3.0117-0.0628 0.83232 0.14508 1.5899 0.71679 2.1484 1.1434 1.1171 3.3504 1.5726 7.5469 2.4746l7.6152 1.6367-0.58398 3.7168c-0.35739 2.2789-1.0817 5.8401-1.5977 7.8574-0.44536 1.7441-0.76463 2.5643-1.0996 2.8184-0.16749 0.12703-0.37505 0.18924-0.77734 0.1875-0.4023-0.0017-0.97003-0.08266-1.7227-0.21289-1.7097-0.29637-4.8659-1.1818-6.9004-1.9434-1.0526-0.39435-2.1629-0.75125-3.1172-1.0117-0.95432-0.26047-1.7074-0.43164-2.2305-0.43164-0.60629 0-1.1108 0.38882-1.5391 0.9375s-0.81644 1.2996-1.1855 2.2422c-0.73821 1.8851-1.3885 4.5368-1.8809 7.7441l-0.68164 4.4395 6.7637 1.8535c3.489 0.95537 7.5756 2.017 9.1289 2.3691 0.63214 0.14354 1.102 0.27171 1.4062 0.4082 0.30426 0.1365 0.42764 0.25014 0.51368 0.41992 0.17207 0.33956 0.14062 1.1956-0.14063 2.8652-0.2591 1.535-1.1076 4.5811-1.9473 7.2012-0.4198 1.31-0.83888 2.5213-1.1777 3.3926-0.16943 0.43563-0.32102 0.78762-0.43359 1.0117-0.013 0.0259-0.0173 0.02846-0.0293 0.05078-0.0581-0.01564-0.0991-0.02623-0.17383-0.04687-0.29439-0.08134-0.713-0.19926-1.2207-0.3457-1.0154-0.2929-2.3924-0.69792-3.8848-1.1426-3.0107-0.89675-9.628-2.637-14.744-3.877-2.5478-0.61761-4.9272-1.2426-6.7031-1.75-0.88797-0.25369-1.6262-0.47698-2.1523-0.6543-0.26305-0.08866-0.47417-0.16725-0.61719-0.22656-0.0219-0.0091-2e-3 0.0024-0.0215-0.0078 2e-3 -0.04562 4e-4 -0.06973 6e-3 -0.13281 0.0222-0.25788 0.0737-0.64683 0.1543-1.1387 0.16111-0.98368 0.43318-2.3851 0.79297-4.0918 0.71957-3.4134 1.7908-8.0532 3.0391-13.086 5.8583-23.623 7.0919-29.015 9.6758-42.342 0.58612-3.023 1.1664-5.9204 1.6289-8.1504 0.23126-1.115 0.43384-2.0628 0.5918-2.7754 0.15795-0.71258 0.28019-1.2167 0.31835-1.3359 0.0619-0.1935 0.22818-0.35806 0.50977-0.46094 0.28159-0.10289 0.66282-0.12247 1.0488-8e-3zm-231.23 1.3711 0.23437 1.3496c0.36696 2.1078 1.4266 11.841 2.3262 21.461 1.5553 16.64 2.2251 22.091 4.7676 38.725 0.84803 5.5481 0.80565 8.0772-0.17188 11.568-0.33375 1.1918-0.66601 2.2108-0.94336 2.9551-0.11282-0.6402-0.24224-1.4476-0.39844-2.4941-0.34226-2.2932-0.77296-5.4411-1.2266-8.9473-0.9072-7.0123-1.9081-15.463-2.4941-21.402-0.49021-4.9725-1.6087-12.877-2.4922-17.619-1.952-10.485-2.0032-13.452-0.36523-21.734zm182.18 0.86914c-3e-3 8e-3 -3e-3 0.0112-6e-3 0.0195-0.44841 1.395-1.1174 3.3285-1.8945 5.4551-1.5582 4.2636-3.067 8.414-3.3633 9.2539v2e-3c-0.025 0.0711-0.0266 0.0571-0.0508 0.10938-0.0333-0.0481-0.0304-0.0308-0.0684-0.0996-0.12957-0.2351-0.2864-0.58063-0.46484-1.0293-0.49856-1.2552-0.54826-2.3396 0.10352-4.0938 0.65179-1.7541 2.0421-4.1287 4.4004-7.6953 0.49622-0.75013 0.92271-1.3381 1.3438-1.9219zm-72.043 1.4688c-1.0346-0.0491-1.9319 0.46423-2.6406 1.3672l0.38476 0.30274c-3.1e-4 3.9e-4 3.1e-4 2e-3 0 2e-3l-0.38672-0.30273c-1.3977 1.7814-2.4599 4.718-3.207 8.4336-0.7471 3.7156-1.1593 8.2071-1.1562 13.053 3e-3 5.9434 0.30332 10.263 0.98242 13.264 0.33956 1.5004 0.77114 2.6741 1.3359 3.5605 0.56481 0.88648 1.2822 1.4878 2.127 1.7559 1.2675 0.40217 2.5406 0.17495 3.6387-0.59375 1.0981-0.7687 2.0486-2.0404 2.8867-3.7539 1.6763-3.4271 2.9049-8.655 3.5684-15.389 0.43581-4.4244 0.2169-8.8723-0.49024-12.504-0.70714-3.6316-1.8386-6.4638-3.5606-7.6699-1.3454-0.94189-2.4479-1.4763-3.4824-1.5254zm115.78 0.85549c-0.12524 0.91806-0.36689 2.3083-0.77148 4.3672-0.83451 4.2466-2.3082 11.127-4.6055 21.598-3.1999 14.583-5.8824 25.733-8.1406 33.785-2.2583 8.0521-4.1239 13.033-5.5508 15.133-0.68907 1.0143-1.2111 1.6549-1.5644 2-3e-3 -0.28494-0.0144-0.64095 0.15234-1.4531 0.21491-1.0468 0.58904-2.4767 1.1191-4.2852 1.0565-3.6048 2.6909-11.154 4.0703-18.291 0.68969-3.5686 1.3148-7.0309 1.7676-9.834 0.45276-2.8031 0.73633-4.9079 0.73633-5.9277 0-0.72551 0.33785-2.9435 0.89258-5.7402s1.3215-6.2304 2.1641-9.6211c2.3778-9.5691 3.8613-13.44 6.6758-17.496 1.0094-1.4542 1.9604-2.7808 2.6758-3.7422 0.15531-0.20872 0.24776-0.32055 0.3789-0.49219zm-273.84 2.2695c0.54358 0.0212 0.77035 0.13604 0.88086 0.25781s0.18565 0.35623 0.18945 0.80078c0.0512 5.8076 0.57734 21.96 1.1445 37.018 0.2836 7.5289 0.57758 14.78 0.82813 20.322 0.12527 2.7711 0.23908 5.1154 0.33594 6.8535 0.0968 1.7381 0.1664 2.8192 0.23632 3.2559l0.50196 3.1348-6.3281 1.0879c-3.7473 0.64354-7.8125 1.3094-8.9863 1.4727-0.43451 0.0601-0.68471 0.04024-0.95898-0.125-0.27427-0.16524-0.61157-0.53617-1.0195-1.2793-0.81593-1.4863-1.8853-4.3798-3.6797-9.5605-1.8626-5.3779-3.2988-9.4598-4.4102-12.381-1.1114-2.921-1.8516-4.6431-2.5137-5.4766-0.16551-0.20837-0.32614-0.37904-0.57617-0.48047s-0.6249-0.03359-0.82226 0.14648c-0.39475 0.36014-0.45705 0.82346-0.56055 1.4922-0.207 1.3375-0.26974 3.5222-0.31055 6.5078-0.0577 4.2446-0.39696 11.784-0.75 16.721l-0.61719 8.625-5.1309 1.0762c-2.705 0.56711-4.6796 1.0246-6.1406 1.1836s-2.3518 0.0302-3.0742-0.49024c-0.72247-0.52046-1.3494-1.5263-2.0547-3.2676-0.70523-1.7413-1.4871-4.188-2.5957-7.5-2.1663-6.473-5.1368-14.676-6.6211-18.281-2.7456-6.6657-7.543-20.617-10.158-29.549l-1.3555-4.6309 6.4785-2.0859c1.9009-0.61189 3.6708-1.129 4.9805-1.4648 0.65484-0.16792 1.1967-0.29113 1.5703-0.35742 0.13048-0.0232 0.20654-0.03 0.28906-0.0391 5e-3 0.0114 6e-3 0.0133 0.0117 0.0254 0.0754 0.17428 0.17987 0.42924 0.30664 0.75196 0.25355 0.64545 0.5983 1.5618 1.0098 2.6777 0.82295 2.2318 1.9103 5.2645 3.0606 8.5547 2.0967 5.9977 4.2038 11.374 5.9375 15.264 0.86683 1.9449 1.6395 3.5163 2.2793 4.6211 0.31991 0.5524 0.60429 0.98817 0.86914 1.3086 0.13243 0.16021 0.25794 0.29193 0.40039 0.40039 0.14246 0.10846 0.31077 0.21289 0.55469 0.21289 0.27749 0 0.4095-0.18572 0.45899-0.26758 0.0495-0.08186 0.0657-0.13747 0.082-0.19336 0.0326-0.11177 0.0513-0.22246 0.0703-0.36328 0.0381-0.28163 0.0684-0.66549 0.0957-1.1582 0.0546-0.98543 0.0921-2.3963 0.11328-4.1348 0.0423-3.4769 0.0162-8.2653-0.0879-13.533l-0.36914-18.75 5.8984-1.623c1.7116-0.47119 3.3087-0.83011 4.4844-1.0273 0.58782-0.0986 1.072-0.15539 1.3945-0.16797 0.11315-4e-3 0.17077 3e-3 0.23437 8e-3 0.0261 0.0701 0.0538 0.14485 0.0918 0.25195 0.0971 0.27393 0.22996 0.66068 0.39453 1.1484 0.32915 0.97554 0.78418 2.3501 1.3301 4.0195 1.0918 3.3389 2.5502 7.8613 4.1113 12.76 1.7006 5.3357 3.233 9.7587 4.4297 12.832 0.59836 1.5367 1.1123 2.7342 1.5293 3.5547 0.20849 0.41023 0.38922 0.72484 0.56836 0.96094 0.0896 0.11805 0.1745 0.21827 0.29883 0.30859 0.12432 0.09032 0.34864 0.19551 0.60156 0.11133 0.45047-0.15016 0.60739-0.52862 0.74805-0.94531 0.14066-0.41669 0.2422-0.94697 0.32031-1.6035 0.15622-1.3131 0.21509-3.1253 0.18555-5.3555-0.0591-4.4603-0.47923-10.576-1.2461-17.49-0.75627-6.8235-1.0597-10.349-0.52929-12.129 0.26521-0.88986 0.67374-1.3544 1.418-1.7578 0.74421-0.4034 1.8476-0.69548 3.3438-1.0488 3.6091-0.85225 5.741-1.2514 6.8281-1.209zm8.082 5.4961c0.0823 0.4233 0.15415 0.7737 0.25195 1.3262 0.32961 1.8618 0.73538 4.3859 1.1348 7.1152 0.79962 5.4702 3.0422 20.331 4.9863 33.031 1.7655 11.532 2.6482 17.311 2.8594 20.75 0.21117 3.4392-0.20976 4.4861-1.1191 6.8828-0.41137 1.0834-0.73352 1.9087-0.98828 2.4883-0.14507 0.33004-0.19784 0.38396-0.29492 0.54883-0.0657-0.19209-0.12043-0.30895-0.20313-0.63867-0.17762-0.70786-0.62062-3.4581-1.1934-7.416-0.57275-3.9579-1.2896-9.1761-2.0644-15.014-1.5498-11.675-3.3334-25.827-4.6699-37.324-0.0318-0.27331 3e-3 -1.4083 0.12109-2.8144 0.1177-1.4061 0.30429-3.1454 0.53125-4.873 0.21313-1.6263 0.44359-3.0149 0.64844-4.0625zm-22.459 5.8789c0.18773 0.70568 0.39 1.7763 0.57226 3.4824 0.70564 6.5972 0.8666 10.809 0.56641 12.361-0.0541 0.27986-0.10041 0.33409-0.13477 0.4043-0.26004-0.23647-0.83119-1.1064-1.4922-2.5996-0.60072-1.357-0.8734-3.9958-0.75-6.7402 0.11196-2.4902 0.56972-5.0086 1.2383-6.9082zm58.092 4.0586 0.93946 3.9824c0.69438 2.946 1.5944 10.056 1.9707 15.67 0.33595 5.0072 0.48148 7.5957 0.31445 8.7773-0.0835 0.59081-0.20416 0.74425-0.32617 0.82031-0.12201 0.07606-0.42484 0.11914-0.9375 0.11914-0.57789 0-0.99513-0.06097-1.2207-0.15234-0.22558-0.09137-0.26675-0.14197-0.3086-0.32812-0.0837-0.37231 0.18698-1.4653 0.99024-3.2285 0.39165-0.85947 0.48403-2.2231 0.47461-3.9629-9e-3 -1.7398-0.15952-3.8177-0.40821-5.9082-0.2487-2.0905-0.59624-4.192-1.0058-5.9785-0.40963-1.7865-0.85869-3.2409-1.4102-4.1309-0.53318-0.86041-0.5073-2.177 0.28906-4.1211zm-83.434 0.86323c0.0386 0.18058 0.067 0.19995 0.10156 0.44141 0.19727 1.376 0.35055 3.7256 0.44531 6.9902 0.0947 3.2527 0.066 5.8118-0.0762 7.625-5e-3 0.06693-0.0159 0.0933-0.0215 0.1582-0.0545-0.1167-0.11591-0.24276-0.24219-0.32227-0.15858-0.09985-0.34101-0.11818-0.48437-0.10352-0.27505 0.02813-0.48201 0.14693-0.72657 0.29688-0.0228-0.05504-0.10972-0.22503-0.1582-0.66992-0.11138-1.0221-0.0731-2.968 0.10547-6.0488 0.12567-2.1726 0.34512-4.3122 0.59375-5.9961 0.12431-0.84194 0.25538-1.5715 0.38476-2.127 0.0307-0.13171 0.0462-0.13166 0.0781-0.24414zm-26.225 5.8027 4.5469 12.926c2.8912 8.2194 7.8418 22.256 11.002 31.195 2.713 7.6766 4.1322 11.812 4.7559 14.594 0.6236 2.7817 0.47676 4.191 0.043 6.6543l-0.64063 3.6367-1.3418-3.0078c-1.0896-2.4405-2.7654-6.9447-3.6973-9.9434-6.5504-21.063-9.0307-28.703-12.186-37.521-1.544-4.3173-2.407-6.984-2.8106-9.123-0.40356-2.139-0.3604-3.7594-0.0762-6.0898zm272.55 3.5176c0.0282 0.09314 0.0459 0.13806 0.0762 0.24024 0.67577 2.2788 2.1773 7.8856 4.209 16.244l4.1348 16.996-2.4727 4.6523c-0.70034 1.3181-1.4234 2.6015-2.0195 3.6035-0.29806 0.50102-0.56512 0.93223-0.7793 1.2578-0.075 0.11395-0.0878 0.12156-0.15039 0.20898-0.14424-0.27167-0.29251-0.66115-0.51562-1.209-5.8163-14.281-4.0012-27.49-2.4825-41.994zm33.113 8.1816c0.0378 0.17223 0.0775 0.28657 0.10351 0.60938 0.16405 2.0365-0.0401 6.842-0.54492 15.367-0.37382 6.3089-0.64887 9.9117-1.123 12.4-0.47418 2.4887-1.1286 3.8634-2.332 5.8711l-1.7695 2.9531-6e-3 -3.9805c-0.47275-12.5-0.79905-21.465 4.9707-31.965 0.25201-0.50955 0.47459-0.91769 0.6543-1.1953 0.0291-0.04493 0.0187-0.02355 0.0469-0.06055zm-259.05 30.699c1.9675 5.6497 3.014 8.8247 3.4551 11.109 0.4411 2.2847 0.30006 3.6795-0.13086 5.9531-0.25927 1.3647-0.54026 2.6545-0.78321 3.6211-0.12153 0.48355-0.23437 0.88628-0.32617 1.1719-0.03 0.0934-0.0519 0.14998-0.0762 0.21484-0.0474-0.0426-0.068-0.0478-0.14063-0.14843-0.25808-0.35776-0.37937-1.1362-0.85742-1.8594-5.4732-8.2798-5.348-11.031-5.0179-29.876 0.0109-0.62406 2.4984 5.8529 3.8773 9.8134zm42.861 16.358c270.12 41.848 270.12 41.848 0 0z" style="fill-rule:evenodd"/>
</svg>
