<?xml version="1.0" encoding="UTF-8" standalone="no"?>
<svg xmlns="http://www.w3.org/2000/svg" xml:space="preserve" width="280" height="72.375" version="1.0" viewBox="0 0 303.044 72.375">
  <path fill-rule="evenodd" d="M96.098691 48.652273c-2.642119-4.816911-7.148756-6.734099-12.380324-6.734099-7.614167 0-13.675048 5.386704-13.675048 14.50436 0 9.271836 5.697937 14.503404 13.93361 14.503404 5.28328 0 9.789917-2.900681 12.275941-7.303893l-5.801361-2.952393c-1.295682 3.108488-3.263625 4.041226-5.749649 4.041226-4.299788 0-6.26773-3.5739-6.26773-8.287386 0-4.714444 1.657668-8.288343 6.26773-8.288343 1.243012 0 3.729994.673218 5.179855 3.781706l6.216976-3.264582zm14.808889-.518082c4.61006 0 6.57896 3.573899 6.57896 7.977112 0 5.024718-1.9689 8.598617-6.57896 8.598617-4.61006 0-6.578-3.573899-6.578-8.287386 0-4.713486 1.96794-8.288343 6.578-8.288343zm0-6.216017c-8.59862 0-14.658541 5.231567-14.658541 14.50436 0 9.271836 6.059921 14.503404 14.658541 14.503404s14.6595-5.231568 14.6595-14.503404c0-9.271835-6.06088-14.50436-14.6595-14.50436zm16.31525 28.281875h8.08054V53.055485c0-2.486024 1.03616-4.610062 4.29883-4.610062 3.10848 0 3.93684 1.812806 3.93684 4.506637v17.248947h8.08054V53.262334c0-2.797256 1.39815-4.816911 4.09198-4.816911 3.05581 0 4.14369 1.761094 4.14369 5.646224v16.108402h8.08054V49.170354c0-6.319443-5.80137-7.25218-8.4952-7.25218-3.21191 0-6.21602.98445-8.85718 3.677323-1.81376-2.434311-4.14369-3.677323-7.30389-3.677323-2.48602 0-5.90479.72493-7.97711 3.1602v-2.434312h-8.08054v27.555987h.00096zm43.29857 0h8.08054V53.055485c0-2.486024 1.03616-4.610062 4.29883-4.610062 3.10849 0 3.93684 1.812806 3.93684 4.506637v17.248947h8.08054V53.262334c0-2.797256 1.39815-4.816911 4.09102-4.816911 3.05582 0 4.14465 1.761094 4.14465 5.646224v16.108402h8.08054V49.170354c0-6.319443-5.80232-7.25218-8.4952-7.25218-3.21191 0-6.21506.98445-8.85717 3.677323-1.81281-2.434311-4.1437-3.677323-7.3039-3.677323-2.48602 0-5.90478.72493-7.97711 3.1602v-2.434312h-8.08053v27.555987h.00095zm57.02438-22.065858c4.6091 0 6.578 3.573899 6.578 7.977112 0 5.024718-1.9689 8.598617-6.578 8.598617-4.61006 0-6.57896-3.573899-6.57896-8.287386 0-4.713486 1.9689-8.288343 6.57896-8.288343zm0-6.216017c-8.59862 0-14.6595 5.231567-14.6595 14.50436 0 9.271836 6.05992 14.503404 14.6595 14.503404 8.59862 0 14.6595-5.231568 14.6595-14.503404 0-9.271835-6.06088-14.50436-14.6595-14.50436zm16.83333 28.281875h8.08054V53.055485c0-2.486024 1.03616-4.610062 4.29978-4.610062 3.10753 0 3.93589 1.812806 3.93589 4.506637v17.248947h8.08054V49.843572c0-4.143692-1.81377-7.925398-8.34006-7.925398-2.48602 0-5.90479.72493-7.97711 3.1602v-2.434312h-8.08054v27.555987h.00096zm51.37911-24.292362c-3.72999-2.486024-7.92444-3.988556-12.17252-3.988556-5.59547 0-11.65539 2.693831-11.65539 9.63478 0 9.789917 16.31621 6.371155 16.31621 10.670942 0 2.486982-3.05486 2.797256-4.40321 2.797256-3.67733 0-6.21506-1.501574-8.70205-3.885131l-5.02471 4.350543c4.04122 3.729993 7.45903 5.439374 13.46819 5.439374 6.00726 0 12.43108-2.590406 12.43108-9.841629 0-10.307998-16.31621-6.422867-16.31621-11.136354 0-1.398149 1.44987-2.123079 3.46952-2.123079 2.53869 0 6.00917 1.036162 7.61417 2.952393l4.97492-4.870539zM96.098691 16.94972c-2.642119-4.816911-7.148756-6.734099-12.380324-6.734099-7.614167 0-13.675048 5.386704-13.675048 14.503403 0 9.271835 5.697937 14.504361 13.93361 14.504361 5.28328 0 9.789917-2.900681 12.275941-7.303893l-5.801361-2.952393c-1.295682 3.108488-3.263625 4.040268-5.749649 4.040268-4.299788 0-6.26773-3.573899-6.26773-8.288343 0-4.713487 1.657668-8.287386 6.26773-8.287386 1.243012 0 3.729994.673219 5.179855 3.781707l6.216976-3.263625zm1.970815 21.547776h8.080534V22.543274c0-3.055818 1.91623-3.885131 6.7341-4.454925l.88007-.103424-.0517-7.147798c-2.84897.207807-5.80136 1.243012-7.56246 2.90068v-2.797256h-8.080534v27.556945zM141.2072 26.376692c-.0517-8.495192-3.47048-16.161071-13.51992-16.161071-8.39176 0-13.51991 5.594511-13.51991 15.332716 0 7.769304 4.97301 13.675048 13.51991 13.675048 6.16431 0 10.56656-2.434312 13.36382-7.614167l-6.06088-3.1602c-2.33089 3.315337-3.72999 4.868623-6.7341 4.868623-2.58945 0-5.9565-1.657669-6.00821-6.940949h18.95929zm-19.06176-4.972048c.36199-3.626569 3.15925-5.28328 5.49013-5.28328 2.33089 0 5.23157 1.243012 5.49013 5.28328h-10.98026zm37.59777 5.593554c0 4.195406-2.3826 6.319443-5.5428 6.319443-1.9689 0-3.78171-.932738-3.78171-3.10753 0-2.227462 1.86452-3.004105 3.88513-3.573899l5.43938-1.554244v1.91623zm7.7693-8.805466c-.0517-6.216018-4.7652-7.977111-12.27594-7.977111-3.72999 0-11.08464.72493-11.34416 8.650329h7.77026c.41466-2.745543 1.65671-3.677324 4.24712-3.677324 2.17575 0 3.83342.880068 3.83342 2.952393v2.279175l-2.9524.414657c-8.80546 1.243012-14.14141 3.573899-14.14141 10.204573 0 5.28328 3.93684 8.183961 9.22012 8.183961 2.90068 0 6.94095-1.398149 8.28738-3.573899h.10343c.0517.932738.20781 1.91623.51808 2.848968h7.45903c-.67322-1.709381-.72493-3.832461-.72493-5.749649V18.192732zm19.00334-6.734099h-4.81787V3.4815214h-8.08054v7.9771116h-3.93588v4.972048h3.93588v14.504361c0 3.988555.98445 8.287385 7.87465 8.287385 1.76109 0 4.14369-.206849 5.17985-.311232V32.54004c-.41561.05171-1.55424.155137-2.43431.155137-1.45178 0-2.53869-.569793-2.53869-2.745543V16.431638h4.81786v-4.973005h-.00095zm3.04241-.518082v27.556945h8.08053V10.940551h-8.08053zm8.08149-3.1075298V1.6170033h-8.08053v6.2160179h8.08053zm10.87396229 30.66447514h8.1322483l9.42793036-27.55694505h-8.59861723l-4.76615636 19.4764091h-.1024671l-4.767114-19.4764091h-8.64937196zM252.16853 26.376692c-.0517-8.495192-3.47048-16.161071-13.51896-16.161071-8.39272 0-13.51895 5.594511-13.51895 15.332716 0 7.769304 4.97109 13.675048 13.51895 13.675048 6.16431 0 10.56656-2.434312 13.36382-7.614167l-6.06088-3.1602c-2.33089 3.315337-3.73 4.868623-6.73314 4.868623-2.58945 0-5.95746-1.657669-6.00821-6.940949h18.95737zm-19.06176-4.972048c.36295-3.626569 3.15925-5.28328 5.49013-5.28328 2.33089 0 5.23253 1.243012 5.49109 5.28328h-10.98122zM36.074041 9.7521245c-8.314199 0-15.630541 3.0768855-21.284427 8.8131275-5.819556 5.903829-8.9787985 13.552471-8.9787985 21.53437 0 8.064256 3.0759281 15.547227 8.8964425 21.367741 5.819556 5.819556 13.385841 8.978799 21.366783 8.978799 7.980942 0 15.713856-3.159243 21.700041-9.062113 5.653885-5.570571 8.646499-12.970228 8.646499-21.284427 0-8.230885-2.992614-15.713856-8.729814-21.451055-5.819556-5.819557-13.302527-8.8964425-21.616726-8.8964425zm.08331 5.4882145c6.817414 0 12.886913 2.576999 17.626256 7.316342 4.65507 4.656028 7.149713 10.808842 7.149713 17.542941 0 6.817414-2.411328 12.803599-7.067356 17.37727-4.905972 4.821699-11.224457 7.399657-17.70957 7.399657-6.568428 0-12.721242-2.577-17.459627-7.316342-4.739343-4.740301-7.399657-10.975471-7.399657-17.460585 0-6.568428 2.660314-12.803599 7.399657-17.626256 4.656028-4.738384 10.643171-7.233027 17.460584-7.233027z"/>
  <path fill-rule="evenodd" d="M35.765682 35.056709c-1.714169-3.125725-4.638791-4.369695-8.033612-4.369695-4.941403 0-8.874416 3.495373-8.874416 9.412608 0 6.01683 3.697434 9.412608 9.04296 9.412608 3.429296 0 6.35296-1.882713 7.966578-4.739342l-3.765427-1.916231c-.840805 2.016782-2.117334 2.622009-3.730951 2.622009-2.790553 0-4.067082-2.319396-4.067082-5.378086 0-3.058691 1.075426-5.379044 4.067082-5.379044.80633 0 2.419947.43764 3.361304 2.453464l4.033564-2.118291zm17.507509 0c-1.715127-3.125725-4.638791-4.369695-8.033612-4.369695-4.941404 0-8.875374 3.495373-8.875374 9.412608 0 6.01683 3.698392 9.412608 9.04296 9.412608 3.429296 0 6.35296-1.882713 7.966578-4.739342l-3.765427-1.916231c-.839847 2.016782-2.117334 2.622009-3.730951 2.622009-2.789595 0-4.06804-2.319396-4.06804-5.378086 0-3.058691 1.076384-5.379044 4.06804-5.379044.80633 0 2.419947.43764 3.362261 2.453464l4.033565-2.118291z"/>
</svg>