<svg version="1.1" viewBox="0 0 40 40" xmlns="http://www.w3.org/2000/svg">
  <path d="m20 0c-11 0-20 9-20 20-2.3685e-15 9.9 7.1992 18.101 16.699 19.801l0.12109-0.097656c-0.006556-0.001185-0.012974-0.002714-0.019531-0.003906v-14.1h-5v-5.5996h5v-4.4004c0-5 3.1988-7.7988 7.7988-7.7988 1.4 0 3.0004 0.19844 4.4004 0.39844v5.1016h-2.5996c-2.4 0-3 1.1988-3 2.7988v3.9004h5.2988l-0.89844 5.5996h-4.4004v14.1c-0.062368 0.011339-0.12513 0.0186-0.1875 0.029297l0.08789 0.072265c9.5-1.7 16.699-9.9008 16.699-19.801 0-11-9-20-20-20z" style="fill:#0a0a0a"/>
</svg>
