<?xml version="1.0" ?><svg id="Layer_1" style="enable-background:new 0 0 91 91;" version="1.1" viewBox="0 0 91 91" xml:space="preserve" xmlns="http://www.w3.org/2000/svg" xmlns:xlink="http://www.w3.org/1999/xlink"><g><path d="M25.1,61.5c3.3-1.5,6.9-2.5,10.7-3.2c-0.7-3.2-1.1-6.5-1.2-9.9H18.3c0.3,5.2,2,9.9,4.8,13.9L25.1,61.5z"/><path d="M26.4,64.7l-1.2,0.5c4.4,5,10.6,8.3,17.5,9.1l-0.3-0.4c-2.5-3.4-4.5-7.6-5.8-12.2C32.9,62.3,29.5,63.3,26.4,64.7z"/><path d="M36.5,32c1.2-4.3,3-8.3,5.3-11.6l0.9-1.2c-7,0.8-13.1,4.2-17.6,9.2l1.1,0.5C29.4,30.3,32.9,31.4,36.5,32z"/><path d="M35.7,35.3c-3.9-0.7-7.5-1.8-10.9-3.3L23,31.2c-2.7,4-4.4,8.8-4.7,13.9h16.3C34.7,41.7,35,38.4,35.7,35.3z"/><path d="M66.3,65.5L65.6,65c-3.4-1.6-7.2-2.7-11.2-3.4c-1.3,4.6-3.3,8.8-5.8,12.2l-0.4,0.6C55.4,73.8,61.7,70.5,66.3,65.5z"/><path d="M65.7,28.6l0.8-0.4c-4.6-5.1-11-8.4-18.2-9l0.9,1.3c2.3,3.3,4,7.3,5.3,11.6C58.5,31.4,62.3,30.2,65.7,28.6z"/><path d="M37.9,45H53c-0.1-3.2-0.5-6.3-1.1-9.2c-2.1,0.2-4.2,0.4-6.3,0.4c-2.2,0-4.4-0.1-6.5-0.4C38.4,38.7,38,41.9,37.9,45z"/><path d="M68.6,30.8l-1.4,0.8c-3.6,1.7-7.7,3-11.9,3.7c0.7,3.1,1,6.4,1.1,9.7h17.2C73.3,39.8,71.5,34.9,68.6,30.8z"/><path d="M67.3,62.1l1.2,0.8c3-4.1,4.8-9.1,5.1-14.4H56.4c-0.1,3.4-0.5,6.7-1.2,9.9c4.3,0.7,8.3,2,11.9,3.7L67.3,62.1z"/><path d="M45.5,21.1l-1,1.3c-2,2.8-3.5,6.3-4.6,10.1c1.9,0.2,3.8,0.3,5.7,0.3c1.9,0,3.7-0.1,5.5-0.3c-1.1-3.8-2.7-7.3-4.7-10.2   L45.5,21.1z"/><path d="M45.5,72.4l0.4-0.5c2.2-3,3.9-6.7,5.1-10.7c-1.8-0.2-3.6-0.3-5.4-0.3c-1.9,0-3.8,0.1-5.6,0.3c1.2,4,2.9,7.7,5.1,10.6   L45.5,72.4z"/><path d="M45.6,57.5c2.1,0,4.2,0.1,6.3,0.4c0.7-3,1-6.2,1.1-9.4H37.9c0.1,3.3,0.5,6.4,1.1,9.4C41.2,57.6,43.4,57.5,45.6,57.5z"/></g></svg>