<svg width="1e3" height="1e3" version="1.1" viewBox="0 0 264.58 264.58" xmlns="http://www.w3.org/2000/svg" xmlns:xlink="http://www.w3.org/1999/xlink">
  <path d="m132.33 0c-55.231 0-71.383 0.05679-74.523 0.31729-11.334 0.9424-18.387 2.7276-26.071 6.5541-5.9214 2.9413-10.592 6.3509-15.201 11.13-8.3938 8.7157-13.481 19.438-15.323 32.184-0.8953 6.1877-1.1558 7.4493-1.2087 39.055-0.0203 10.535 0 24.401 0 42.998 0 55.201 0.06096 71.342 0.32556 74.477 0.9157 11.032 2.6453 17.973 6.3081 25.565 7 14.533 20.369 25.443 36.119 29.514 5.4535 1.4044 11.477 2.1777 19.209 2.544 3.2762 0.1425 36.668 0.24443 70.081 0.24443 33.413 0 66.825-0.0408 70.02-0.2036 8.9535-0.4214 14.153-1.1196 19.901-2.6055 15.852-4.0912 28.977-14.838 36.119-29.574 3.5916-7.409 5.4126-14.615 6.2368-25.071 0.179-2.2796 0.25424-38.626 0.25424-74.924 0-36.304-0.0813-72.583-0.26045-74.863-0.8343-10.625-2.6554-17.769-6.3629-25.321-3.0421-6.1816-6.4204-10.798-11.324-15.518-8.752-8.3616-19.455-13.451-32.21-15.291-6.18-0.8936-7.4108-1.1579-39.033-1.2128zm-0.0202 33.973h0.031c26.682 1.37e-4 30.041 0.11684 40.528 0.59376 10.473 0.4792 17.625 2.1363 23.897 4.5672 6.4762 2.5087 11.949 5.8672 17.421 11.335 5.472 5.4639 8.833 10.948 11.354 17.413 2.4183 6.2503 4.0784 13.393 4.5703 23.858 0.4713 10.486 0.59428 13.836 0.59428 40.533 0 26.697-0.12298 30.039-0.59428 40.525-0.4919 10.461-2.152 17.606-4.5703 23.858-2.5208 6.4633-5.8818 11.947-11.354 17.411-5.4659 5.468-10.946 8.835-17.414 11.346-6.259 2.431-13.416 4.088-23.888 4.5672-10.493 0.4772-13.836 0.59376-40.555 0.59376-26.715 0-30.065-0.11676-40.559-0.59376-10.471-0.4793-17.621-2.1363-23.88-4.5672-6.466-2.5107-11.955-5.8776-17.421-11.346-5.47-5.4639-8.8309-10.948-11.346-17.413-2.4306-6.2503-4.0891-13.393-4.5708-23.858-0.4754-10.485-0.59428-13.826-0.59428-40.523 0-26.697 0.12343-30.05 0.59273-40.535 0.4713-10.461 2.1314-17.606 4.5703-23.858 2.5208-6.4633 5.8818-11.947 11.354-17.411 5.4679-5.4659 10.956-8.8245 17.426-11.335 6.255-2.431 13.404-4.088 23.877-4.5672 10.487-0.47692 13.858-0.59362 40.532-0.59376zm-8.7943 17.69c-18.334 0.0206-21.851 0.14334-30.926 0.55294-9.5914 0.4404-14.799 2.0378-18.267 3.3895-4.5908 1.7858-7.87 3.9155-11.313 7.3561-3.4431 3.4405-5.5788 6.7173-7.3618 11.305-1.3465 3.4651-2.9493 8.6667-3.3879 18.251-0.4714 10.362-0.56534 13.459-0.56534 39.71 0 26.25 0.0939 29.363 0.56534 39.726 0.4365 9.5843 2.0414 14.786 3.3879 18.247 1.7872 4.5895 3.9187 7.858 7.3618 11.299 3.443 3.4405 6.7222 5.5703 11.313 7.352 3.4698 1.3455 8.6752 2.9472 18.267 3.3895 10.37 0.471 13.484 0.57361 39.752 0.57361 26.266 0 29.381-0.10261 39.751-0.57361 9.5915-0.4383 14.801-2.0357 18.265-3.3874 4.5928-1.7817 7.8617-3.9114 11.305-7.352 3.4431-3.4384 5.5783-6.7049 7.3613-11.292 1.3465-3.461 2.9493-8.6626 3.3879-18.247 0.4714-10.362 0.57412-13.476 0.57412-39.71 0-26.234-0.10272-29.347-0.57412-39.709-0.4365-9.5844-2.0414-14.786-3.3879-18.247-1.7872-4.5873-3.9182-7.8641-7.3613-11.305-3.441-3.4405-6.7139-5.5703-11.305-7.352-3.4677-1.3455-8.6735-2.9465-18.265-3.3848-10.372-0.471-13.485-0.56534-39.751-0.56534-3.2832 0-6.206-0.0041-8.8253 0zm61.336 16.343c6.5173 0 11.805 5.2838 11.805 11.796 0 6.5125-5.2878 11.796-11.805 11.796-6.5173 0-11.805-5.2837-11.805-11.796 0-6.5144 5.2877-11.792 11.805-11.792zm-52.513 13.787h2e-3c27.898 0.0011 50.511 22.604 50.511 50.482 0 27.879-22.611 50.471-50.511 50.471s-50.519-22.593-50.519-50.471c0-27.878 22.619-50.481 50.517-50.482zm2e-3 17.715c-18.111 0-32.791 14.669-32.791 32.767 0 18.096 14.68 32.767 32.791 32.767 18.109 0 32.791-14.671 32.791-32.767 0-18.098-14.682-32.767-32.791-32.767z" style="fill:#0a0a0a"/>
</svg>
