<svg id="Layer_1" data-name="Layer 1" xmlns="http://www.w3.org/2000/svg" viewBox="0 0 639.23833 701.09747">
  <title>bear</title>
  <g>
    <path d="M696.005,651.76781c-4.55712,2.18974-6.51346,12.11919-10.41152,15.903-4.52584,4.39316-11.62823,8.38523-17.41577,10.85323-16.98913,7.24471-36.16767,7.61455-52.91145,15.61708-13.47561,6.44053-19.37069,18.74665-28.70972,29.54785-10.01122,11.57862-29.31841,28.87113-45.56056,21.19974-28.1114-13.2774-29.30158-50.8158-45.74892-73.2831-1.19644-1.63436-5.05048-7.40666-7.31934-7.63269-3.14308-.31312-4.25867,4.45669-5.87437,6.24652-7.0247,7.78181-10.23426,4.1857-11.1605-4.73832-.82385-7.93748-.88669-15.94537-1.74568-23.87907-.65741-6.07181.1889-16.76044-6.5553-13.66162-5.35528,2.46065-6.46727,15.46737-12.0999,4.34711-1.31407-2.59431-.59623-9.52982-1.17149-12.62455a95.63668,95.63668,0,0,0-3.243-12.12763c-1.029-3.15614-4.28225-17.66513-8.77885-17.70723-4.53477-.04246-7.3931,16.62-8.31654,19.65825-4.79176,15.76558-9.95617,32.09946-18.37594,46.37776-3.53338,5.99192-8.458,13.123-13.96738,17.46456-9.00286,7.09455-7.11-2.08191-4.95556-8.0646,2.91887-8.10556,9.26521-30.576-2.19867-12.70325-8.81661,13.74554-19.21793,28.59391-35.86808,33.26048-21.60568,6.05546,1.19518-12.27967-1.475-16.51192-1.20722-1.91345-36.81277,16.46157-27.7863,27.95082,3.83166,4.87708,17.00887,3.931,22.39318,4.629a54.27234,54.27234,0,0,1,18.10368,5.18958c13.28112,6.34838,30.46285,16.97214,25.60525,34.47093-9.78652,35.25457-61.99816,16.603-86.4487,16.73179-30.77247.16212-75.62306,14.90563-76.64248-30.6025a147.70372,147.70372,0,0,1,1.63714-27.887c.43741-2.57336,5.86311-20.6653,3.91659-22.059-4.85036-3.47293-10.23737,5.71149-14.013,6.46094-9.74433,1.93419-6.64726-6.10432-4.067-12.14572,5.851-13.69925,16.63151-24.26518,27.4808-34.10533,1.876-1.70151,14.38577-9.51052,8.47636-10.66106-6.76458-1.317-13.32654,10.5488-18.41149,9.71875-11.73567-1.91569,14.26809-27.54382,17.3523-29.96791,12.767-10.0345,25.67821-20.06581,20.4055-38.1049-1.397-4.7796-6.66907-18.03748-12.9512-17.03807-6.40178,1.01845-5.23944,10.83606-8.79965,13.7112-7.41514,5.98827-9.99006-11.1476-10.67025-15.248-1.829-11.0257-.27059-22.886,1.54607-33.81328.21774-1.3097,5.2016-17.0213,4.53933-17.35743-4.52276-2.29545-10.19553,11.91081-12.25222,14.06884-13.42761,14.08925-6.403-25.228-4.91079-30.89261,10.59573-40.22211,39.76083-71.08666,56.44569-108.46692,7.617-17.06488-28.50451-21.36232-39.12726-16.67692-15.15378,6.6839-23.77316,24.86563-28.73224,39.65261-6.27773,18.71892-10.23549,38.23066-22.49082,54.2894-10.70766,14.03075-26.71331,25.71045-43.61523,31.01854-19.21994,6.03607-41.02525.8991-59.45548-5.58645-8.19878-2.88513-16.64132-6.25646-22.57895-12.886-2.63019-2.93668-6.4442-13.82557-10.02911-12.55883V433.21366c0-2.34154-.66271-7.00737,0-8.96508.25172-.74362,3.037-2.7135,3.55367-3.81231,4.12861-8.78018,8.95663-15.71958,17.59763-20.77844,9.4178-5.51363,18.65545-5.1671,29.1541-5.05356,9.55481.10334,24.24335,1.00845,30.05423-8.5785,3.41593-5.63569,4.05135-22.24043-1.02317-27.19093-7.08461-6.91147-12.90641,11.47228-20.52062,5.88928-6.04712-4.434-.80539-23.78005.59106-29.76168a163.307,163.307,0,0,1,5.00772-16.5981c.86406-2.47524,6.35348-11.882,5.229-14.05277-2.12564-4.10364-12.38683,7.13931-12.4418-3.44139-.04324-8.3212,12.61526-20.23023,18.919-24.32464,7.88992-5.12468,16.17573-8.15414,24.10394-12.70784,2.79026-1.60264,19.76358-8.681,20.17212-10.78714,1.06273-5.47873-14.07283-9.82183-10.36549-18.09894,3.239-7.23146,21.29779,4.78629,26.46039,6.15505,10.68445,2.83278,22.3278,3.44709,33.26886,4.922,16.90754,2.27918,7.53235-1.68525,1.69385-11.1945-2.75022-4.47931-8.3381-19.13552,1.81546-17.5043,2.9548.47471,6.20445,5.34979,8.45759,7.26793a139.556,139.556,0,0,0,14.57786,10.99178c3.7899,2.452,21.43978,14.58966,25.94467,13.27336,6.54859-1.91346-2.40106-28.063-1.879-32.38482,1.551-12.83883,11.93676-2.38759,18.94315.6881,2.31866,1.01785,11.94019,4.16807,13.87407,1.0989.45645-.7244-4.20914-10.30031-5.39293-10.92306-4.56492-2.40142-2.01286,5.83619-7.81074,6.06975-9.20027.37061-14.16739-14.80519-17.45376-20.53115-5.75739-10.03133-1.95693.97092-8.66061,3.06318-9.81826,3.06434-11.66642-17.79917-12.456-23.6842a108.97515,108.97515,0,0,1-1.39755-16.95444c.05508-2.0412,2.26277-9.02078.67073-10.33859-4.90971-4.064-5.58156,16.589-13.79714,7.10154-3.93163-4.54031.14726-20.85551,1.68163-25.72191,3.20058-10.151,9.21376-18.07638,14.62929-26.92916,6.56039-10.72429-2.43414-.84069-7.5734-2.95354-9.93779-4.08563,10.92156-18.31362,14.24935-20.04945,20.89869-10.9011,41.107-12.59848,63.62006-5.23406,10.87518,3.55747,21.63009,7.977,29.96322,15.99361,2.98937,2.87583,5.44668,7.1105,9.48674,8.52878,5.64924,1.98319,13.36226-.76495,19.153-1.54908,23.95124-3.24329,48.8156-4.79522,72.74607-.5797a134.10476,134.10476,0,0,1,16.83123,4.0824c3.46379,1.08571,8.7614,4.79566,12.00154,5.09047,6.96558.63377,16.13085-12.168,21.84075-16.51243,17.38876-13.23028,36.05792-21.7929,57.93986-23.58621,7.58907-.62195,24.83911-1.71371,31.75556,1.9625,11.75242,6.2466-6.05521,6.56679-6.88124,8.93272-1.34462,3.85128,17.124,11.46039,20.65841,14.40264,5.91934,4.92764,15.43565,15.43928,16.88016,23.40649,2.82866,15.60155-11.01738,1.16893-16.574,3.21034-5.36809,1.97214-2.63767,19.2913-2.6165,24.94509.03242,8.65835-1.04127,22.53572-7.38077,29.42046-6.51425,7.07451-6.00148-2.04687-10.83686.35667-7.56031,3.758-6.50683,23.86012-15.44811,26.31168-8.4029,2.30395-5.35719-13.40667-12.85948-6.24227-5.7,5.44326-7.53471,17.49754-12.10761,24.2463-6.58661,9.7206-17.55655,16.40839-27.30759,22.56372-5.48121,3.46-23.83823,10.08122-22.07686,16.90232.98909,3.83035,9.53209,10.76489,12.27821,13.58587,4.46666,4.58839,8.97413,9.18774,14.198,12.9127,7.57829,5.40378,16.28817,10.80306,2.53174,16.30054-2.35217.94-11.01927.97064-10.79715,5.385.1449,2.87962,7.31488,7.91577,9.14371,10.06854,7.71526,9.08187,12.2506,12.42492-.66039,17.339-8.134,3.09592-23.7429,1.80733-16.5956,13.065,6.32564,9.96343,11.40527,12.08744,22.58236,12.82022,12.84641.84223,25.869,2.27529,38.669,3.59909a370.228,370.228,0,0,1,66.489,12.64466c20.75189,6.11693,36.42957,15.51005,45.41943,36.09637,9.33964,21.3873-2.95731,45.35986-21.45216,57.39281-19.10945,12.43282-45.69059,8.33666-67.06409,5.63164-24.84428-3.14429-47.05848-12.55939-71.30053-17.84152-11.45288-2.49549-10.3061,6.04134-13.73957,15.62551-4.811,13.42937-1.85581,21.81466,3.2994,34.82271,8.23867,20.78844,17.63909,41.07194,29.53325,60.07451,10.58,16.90308,25.23709,43.63707,44.58116,51.26239,20.54334,8.09806,41.504-2.5236,62.10729-6.09683,9.20737-1.59683,18.86005-2.17326,26.71652,3.79633,2.31049,1.75559,13.1202,17.37561,14.33944,16.956Zm-452.466,74.95955c-1.10873,9.68159,9.65616,19.29335,18.43739,20.28461,6.5637.74094,15.85862-2.15958,22.66408-2.38069,8.44254-.2743,16.95265-.22587,25.37951.319,14.60262.94425,29.13413,3.45,43.77326,3.92281,13.02017.42055,26.46476-9.21776,16.93658-22.95021-7.50331-10.81412-20.76082-6.89989-31.65663-8.79437-9.54716-1.66-32.23815-7.5255-32.55388-19.38791-.60719-22.81229,34.709-40.63166,49.78245-51.81868,22.8527-16.96057,44.83467-35.99679,53.59424-63.85322,4.86139-15.45976,6.81-30.40679,7.01166-46.57224a219.4771,219.4771,0,0,0-.82586-24.43269c-.43185-4.35119-4.59951-16.52222-2.04682-19.97066,4.92421-6.65212,16.00306,20.68734,17.703,24.76314a101.04564,101.04564,0,0,1,6.61338,20.58585c.58847,3.2028-.037,18.60577,2.33425,19.79572,3.79227,1.90307,19.7843-20.39831,22.426-23.95688,9.05762-12.20152,17.96963-23.5992,25.35339-37.02572,12.83318-23.33567,18.62989-53.46113,19.41186-79.7724.37026-12.45808-.914-30.18463-6.52205-41.66878-1.81638-3.71957-6.22332-10.2486-11.38025-8.946-5.54372,1.40029-.11054,13.63947.99332,17.7988a215.40512,215.40512,0,0,0,7.09285,21.54336c1.8378,4.81689,8.6334,15.34748,7.47618,20.12418-2.76432,11.41037-30.05771-6.53874-36.1088-9.69735-1.66849-.87094-10.70576-8.0766-12.48138-7.23624-2.87256,1.35952-2.14253,13.94085-2.30862,16.26834-.56279,7.88662-1.68984,15.79269-1.89753,23.6932-.15411,5.86234,3.72528,16.7234-1.162,20.736-8.0959,6.647-19.67963-14.78855-23.25118-20.25085-3.53678-5.40911-6.99-10.56215-9.465-16.56824-1.6074-3.90056-2.27277-13.075-6.73572-9.6406-5.1427,3.95747.64176,31.0826-8.73814,32.32765-9.73893,1.29272-19.14914-31.98353-21.77952-38.73117-1.595-4.09169-4.51207-16.34767-7.70042-18.6334-4.14569-2.97207-8.42718,2.0705-12.718,4.83368-5.8663,3.77779-26.16751,22.60648-29.64168,10.17248-1.80521-6.46084,2.73634-17.29149,4.44356-23.24143,1.25542-4.37536,7.79659-17.11415,5.89275-20.947-2.04713-4.12133-7.78454-2.08431-12.00443-2.05047-5.12427.0411-17.40457-4.20511-21.98821-1.44735-3.98779,2.39926-9.71411,14.52578-12.14563,18.31278-4.30563,6.70586-8.27118,13.62386-12.56172,20.3394-8.778,13.73933-16.67266,28.171-21.43051,43.876a131.85376,131.85376,0,0,0-5.09078,48.93157c1.44411,16.73089,8.37357,31.76459,15.73023,46.71873,8.70354,17.692,15.6783,31.53087,9.48657,51.20394-4.28185,13.60479-9.55744,26.71047-14.87087,39.9873C255.31986,662.50149,239.65035,694.25121,243.53905,726.72736ZM311.13874,84.202c-13.435-.43489-29.4081,12.56017-35.35133,23.91028-7.19679,13.74409-8.03819,29.98322-1.38253,43.96371,6.675,14.021,19.91933,23.21737,32.352,31.67165,5.57526,3.7912,9.01816,5.16883,10.99114,11.6988,1.201,3.9749.17159,7.1716,2.46126,11.11955,2.25693,3.8915,6.37229,6.88254,9.851,9.59924,11.41074,8.91106,26.72282,13.01953,34.48405,26.01566,8.51938,14.26564,9.30467,31.70853,19.05094,45.62842,20.97833,29.96183,57.47064,23.72165,80.23075-.31743,10.43994-11.02659,17.15087-24.39063,22.09649-38.47464,4.44527-12.65914,20.79505-13.22,31.636-20.5471,11.69508-7.90438,22.85137-18.66588,29.91653-30.92333,7.89-13.68843,11.062-24.21243,25.78791-32.36915,12.28129-6.80262,21.78222-14.3196,25.10242-28.79791,3.2053-13.9773,1.33227-35.28594-11.62716-44.01784-26.282-17.7085-61.46653-5.32537-79.01575,18.17045-4.34632,5.81908-4.01064,9.14845-10.79913,8.23087-7.77952-1.05153-16.93327-6.58946-24.92418-8.55193a184.10452,184.10452,0,0,0-58.38611-4.36447c-8.94223.87794-18.21756,1.81436-27.10006,3.1085-10.82627,1.57733-16.999,4.83376-25.89832-2.79292C345.69328,93.37482,332.08181,82.663,311.13874,84.202ZM154.49931,381.399c0,14.0058-2.48531,25.00257-18.00284,27.02754-14.12288,1.843-28.56178-1.89637-42.42435,2.71735-27.82725,9.26141-26.58982,43.885.5588,52.86093,13.63782,4.509,30.58651,5.58832,44.74068,3.78026,14.7766-1.88757,23.83954-9.1811,34.49646-19.051,22.65393-20.98086,21.93033-54.47732,36.07931-80.58487,14.05516-25.93442,42.39925-35.05553,68.87706-22.51749,5.15822,2.44257,10.83576,8.04975,16.411,5.78139,4.74518-1.93064,10.92166-12.18831,13.99679-15.82147,1.91879-2.267,13.34015-13.60219,12.66756-15.47952-1.381-3.85465-7.083-1.88929-11.13126-1.60519-6.57265.46124-34.21257,7.37362-37.58043.46125-5.05156-10.36809,20.24215-20.1462,15.85631-29.60657-3.68941-7.95816-28.09308,3.1476-33.17984-5.6429-3.90594-6.74991,5.48976-9.42359,7.57939-13.23573,3.2487-5.92663-3.30875-3.71816-8.906-4.37534-29.70052-3.48717-67.5-3.35026-90.11835,20.03185C138.09553,313.3525,156.70373,349.40892,154.49931,381.399ZM548.2922,731.11444c23.8777-5.70871,31.67562-28.42887,49.32139-42.64431,19.55343-15.75226,42.98576-12.96439,64.7886-22.12157,8.52425-3.58018,18.81119-11.87557,20.18927-21.56076,1.36268-9.57693-7.0488-22.43687-16.75728-24.07263-11.45516-1.93-25.84719,5.826-36.5522,9.00638-10.73119,3.18817-22.2911,5.23427-33.411,3.54062-23.37561-3.56027-37.09633-22.54737-48.66684-41.25334-13.56756-21.93459-24.56557-45.145-37.23-67.53663-1.72488-3.04971-5.85635-14.04427-8.64409-15.44859-4.7621-2.39892-6.29734,2.7968-9.15747,7.18477-7.03348,10.79066-13.3561,21.94437-21.26375,32.14848A156.35548,156.35548,0,0,1,460.228,560.96664c-2.744,2.85773-11.048,7.66185-12.37484,10.94407-2.0413,5.04952,2.25209,6.2463,6.17264,10.33279,4.896,5.10317,9.1615,10.82784,13.78188,16.18037,17.49341,20.26543,33.39453,42.0828,45.7697,65.90342,6.32074,12.16661,9.67171,24.94714,13.75027,37.93734C530.06212,710.974,536.72281,730.97942,548.2922,731.11444ZM333.60283,348.57216c6.69926-.65659,25.00322,2.12327,27.83157,9.33432,1.75258,4.46832-2.93521,12.91263-4.18763,17.34-.59616,2.10743-4.645,10.69769-3.42729,12.43356,2.0452,2.91554,18.90111-10.07781,21.55667-11.40633,10.72339-5.3647,11.39237,4.84782,14.50593,13.45406,1.42958,3.95151,6.85574,23.8924,11.245,21.70344.93648-.467,3.11778-10.44077,3.95291-12.10155,1.39283-2.76984,5.118-11.4091,7.75357-12.84157,7.34672-3.99311,10.61646,15.62377,13.06888,21.472,1.23757,2.9512,11.8215,27.72977,14.02843,26.97327,1.436-.49232,1.59732-38.94037,2.39144-42.90521.95614-4.77382,1.98114-14.404,7.58443-16.08691,6.20278-1.863,11.32461,9.26212,14.42437,12.95124,1.51973,1.80869,11.15243,13.87241,13.84042,13.92222,4.773.08846,1.17594-6.01932.04927-9.884-2.85016-9.77648-14.88467-38.9118-.96476-42.93723,7.43722-2.15073,27.09136,5.978,26.39243-3.55367-.42841-5.84236-11.84154-10.74292-10.94152-17.56792,1.20985-9.17446,18.35167-3.53527,22.16612-9.24206,5.04184-7.54309-17.89849-12.4296-15.16691-22.65018,3.53944-13.24328,30.07524-2.19617,9.28936-18.33675-3.43875-2.67025-10.9777-11.39232-15.97521-10.041-4.84248,1.30943-8.74824,13.1804-10.94921,17.01883-7.85241,13.69442-17.89914,25.09377-32.6805,31.357-28.113,11.91226-58.38665,2.73209-76.155-21.81161-8.15876-11.26985-13.68577-23.67456-19.24784-36.30491-4.62271-10.49724-9.22519-21.56124-21.46659-25.421-5.49663-1.73312-11.57847.91911-17.33925,1.75686-7.58724,1.10337-8.17436.11669-1.38778,4.02924,4.94039,2.8482,8.57289,2.29158,3.19907,9.38963-4.67082,6.16948-13.65668,10.58228-19.25318,15.96436-12.55827,12.07714,16.59295,2.451,17.40057,14.31466.54019,7.93518-12.9396,14.85159-12.5169,21.841.23775,3.93119,12.69615,2.03137,16.54859,2.25977,14.26837.84594,35.70782-2.17569,21.71772,17.57438-4.35374,6.14625-10.09853,11.133-14.46547,17.23539C319.45521,347.54462,323.80047,348.21636,333.60283,348.57216ZM637.355,457.52872a35.821,35.821,0,0,0,37.81366-26.38063c5.20011-19.64215-9.53116-34.49356-25.50835-42.73451-33.08814-17.06667-75.79393-18.4728-112.21965-19.88257-3.862-.14947-19.12122-3.54421-21.07934-.79076-2.862,4.02449,4.50811,20.37491,5.15444,24.52361a244.1458,244.1458,0,0,1,2.30467,27.44228c.45827,11.102-2.704,15.93286,8.59149,19.72415C566.33084,450.8151,601.16605,460.86279,637.355,457.52872Z" transform="translate(-56.76671 -62)"/>
    <path d="M426.56408,288.20737c-12.838-1.16694-22.85059-4.79735-30.34221-15.78234-7.86746-11.53607-8.22868-24.58826-13.64673-36.78818-1.58735-3.57426-9.76863-8.154-7.38683-12.15429,2.41925-4.0632,13.89725,1.4409,17.36908,2.66233,5.90326,2.07682,11.94136,5.8372,18.46456,4.99912,6.67923-.85812,10.14915-7.10939,16.93376-6.72544,5.617.31787,9.10072,5.583,14.05546,6.9787,3.3.92957,7.83467.75422,11.26846,1.05381,5.47914.478,9.89008.36547,14.63513-2.36486,3.1481-1.81143,4.82535-5.96927,7.64639-1.72538,2.45989,3.70058-7.99164,11.72256-10.03295,14.8048-3.6165,5.46068-5.922,11.868-8.79386,17.72807C449.75982,275.12537,443.40274,286.61935,426.56408,288.20737Z" transform="translate(-56.76671 -62)"/>
    <path d="M307.17308,102.83284c9.24951.59224,44.78117,7.37016,39.4985,24.00229-.56427,1.77659-6.10374,5.3361-7.18063,6.35237a80.00213,80.00213,0,0,0-10.17338,11.97441,92.63009,92.63009,0,0,0-7.28675,11.69021c-1.60231,3.16768-2.767,10.7401-5.43314,13.06419-5.36574,4.6774-17.40344-5.05549-21.27786-8.37524-6.86567-5.88277-13.08613-13.61428-14.73878-22.72649C277.69007,122.87456,288.70167,100.94194,307.17308,102.83284Z" transform="translate(-56.76671 -62)"/>
    <path d="M552.88141,97.983a30.2255,30.2255,0,0,1,30.55936,29.38664c.17492,8.936-4.43118,17.02223-11.08225,22.70425-4.16679,3.5597-15.81846,12.27976-20.82053,12.24219-6.24456-.0469-14.98047-13.35515-19.67692-17.95108-5.46274-5.34582-16.45713-11.30438-15.0631-19.57653C518.82316,112.771,541.61626,97.99219,552.88141,97.983Z" transform="translate(-56.76671 -62)"/>
    <path d="M429.05689,182.75821c10.26949,1.27339,22.63858,8.48248,24.43954,19.83555,1.06454,6.71075-4.02167,10.77622-10.36922,11.48109-7.16944.79613-11.77553-4.83156-18.92422-4.38391-6.04672.37864-11.212,3.7874-17.01887-.23659-5.34973-3.70717-4.517-8.41373-1.92069-13.62458C410.27763,185.766,418.62045,184.05362,429.05689,182.75821Z" transform="translate(-56.76671 -62)"/>
    <path d="M388.873,179.90951c-15.32679.32684-17.63052-15.74179-4.21933-22.28219C401.699,149.31463,403.157,180.138,388.873,179.90951Z" transform="translate(-56.76671 -62)"/>
    <path d="M482.30509,171.45481c-1.10051,5.63484-2.75881,11.92547-10.08177,10.7159-5.17888-.85543-11.70181-8.54959-12.25154-13.47837C458.26477,153.38774,482.95547,156.48711,482.30509,171.45481Z" transform="translate(-56.76671 -62)"/>
    <path d="M632.57938,443.93376c-23.76863-.32746-46.11657-12.36114-67.91752-20.36057-7.88261-2.89236-16.186-10.53937-10.7616-19.72081,5.30238-8.97483,21.62758-5.66161,30.24659-6.59669,18.61461-2.0195,55.066-11.67536,69.83885,4.80114C667.14774,416.73673,651.50978,445.23739,632.57938,443.93376Z" transform="translate(-56.76671 -62)"/>
  </g>
</svg>
