<?xml version="1.0" encoding="UTF-8" standalone="no"?>
<!-- Created with Inkscape (http://www.inkscape.org/) -->

<svg
   xmlns:dc="http://purl.org/dc/elements/1.1/"
   xmlns:cc="http://creativecommons.org/ns#"
   xmlns:rdf="http://www.w3.org/1999/02/22-rdf-syntax-ns#"
   xmlns:svg="http://www.w3.org/2000/svg"
   xmlns="http://www.w3.org/2000/svg"
   xmlns:sodipodi="http://sodipodi.sourceforge.net/DTD/sodipodi-0.dtd"
   xmlns:inkscape="http://www.inkscape.org/namespaces/inkscape"
   version="1.1"
   id="svg2427"
   xml:space="preserve"
   width="800"
   height="800"
   viewBox="0 0 800 800"
   sodipodi:docname="black-white-zigzag-pattern.svg"
   inkscape:version="0.92.4 (5da689c313, 2019-01-14)"><metadata
     id="metadata2433"><rdf:RDF><cc:Work
         rdf:about=""><dc:format>image/svg+xml</dc:format><dc:type
           rdf:resource="http://purl.org/dc/dcmitype/StillImage" /><dc:title></dc:title></cc:Work></rdf:RDF></metadata><defs
     id="defs2431"><clipPath
       clipPathUnits="userSpaceOnUse"
       id="clipPath2443"><path
         d="M 0,600 H 600 V 0 H 0 Z"
         id="path2441"
         inkscape:connector-curvature="0" /></clipPath></defs><sodipodi:namedview
     pagecolor="#ffffff"
     bordercolor="#666666"
     borderopacity="1"
     objecttolerance="10"
     gridtolerance="10"
     guidetolerance="10"
     inkscape:pageopacity="0"
     inkscape:pageshadow="2"
     inkscape:window-width="1920"
     inkscape:window-height="1018"
     id="namedview2429"
     showgrid="false"
     inkscape:zoom="0.73663235"
     inkscape:cx="657.62712"
     inkscape:cy="281.35593"
     inkscape:window-x="-8"
     inkscape:window-y="-8"
     inkscape:window-maximized="1"
     inkscape:current-layer="g2435" /><g
     id="g2435"
     inkscape:groupmode="layer"
     inkscape:label="abstract-475-publicdomainvectors.org [Converted]"
     transform="matrix(1.3333333,0,0,-1.3333333,0,800)"><g
       id="g2437"><g
         id="g2439"
         clip-path="url(#clipPath2443)"><path
           d="M 600,0 H -0.541 V 600.541 H 600 Z"
           style="fill:#ffffff;fill-opacity:1;fill-rule:nonzero;stroke:none"
           id="path2445"
           inkscape:connector-curvature="0" /><path
           d="m 573.708,599.199 c 8.716,-8.717 15.581,-15.581 15.581,-15.581 0,0 0.495,0.495 1.316,1.317 0.833,-0.833 1.344,-1.344 1.344,-1.344 l 8.406,8.407 v 2.687 4.514 z m -71.821,0 h -31.214 c 6.096,-6.096 15.606,-15.608 15.606,-15.608 z m -118.721,-15.581 0.025,0.025 0.053,-0.052 15.608,15.608 h -31.267 c 8.717,-8.717 15.581,-15.581 15.581,-15.581 m -104.352,1.317 1.344,-1.344 15.607,15.608 h -33.848 l 15.581,-15.581 z m -88.718,14.264 h -31.215 c 6.096,-6.096 15.607,-15.608 15.607,-15.608 0,0 6.878,6.878 15.608,15.608 m -118.694,-15.556 0.052,-0.052 15.607,15.608 H 55.794 l 15.581,-15.581 z m 519.231,-42.692 -52.84,52.84 -20.598,-20.599 0.004,-0.004 -30.92,-30.919 -51.521,51.522 -20.598,-20.599 0.004,-0.004 -30.945,-30.945 -51.549,51.548 -20.598,-20.599 0.006,-0.004 -32.237,-32.237 -52.84,52.84 -20.597,-20.599 0.004,-0.004 -30.919,-30.919 -51.523,51.522 -20.597,-20.599 0.005,-0.004 -30.947,-30.945 -51.548,51.548 c 0,0 -14.316,-14.317 -19.078,-19.079 v -41.205 c 10.308,10.307 19.083,19.083 19.083,19.083 l 51.491,-51.491 0.027,0.025 0.052,-0.052 51.517,51.518 51.517,-51.518 51.518,51.518 51.492,-51.491 1.316,1.317 1.344,-1.344 51.518,51.518 51.49,-51.491 0.025,0.025 0.053,-0.052 51.518,51.518 51.517,-51.518 51.518,51.518 51.492,-51.491 c 0,0 0.495,0.495 1.316,1.317 l 1.344,-1.344 8.406,8.406 v 41.196 c -3.242,-3.242 -6.551,-6.552 -9.722,-9.723 m 0,-82.519 c -21.357,21.356 -52.84,52.839 -52.84,52.839 l -20.598,-20.598 0.004,-0.005 -30.92,-30.918 -51.521,51.521 -20.598,-20.599 0.004,-0.004 -30.945,-30.945 -51.549,51.548 -20.598,-20.598 0.006,-0.005 -32.237,-32.236 -52.84,52.839 -20.597,-20.598 0.004,-0.005 -30.919,-30.918 -51.523,51.521 -20.597,-20.599 0.005,-0.004 -30.947,-30.945 -51.548,51.548 c 0,0 -14.316,-14.317 -19.078,-19.079 v -41.205 l 19.083,19.083 51.491,-51.491 0.027,0.025 0.052,-0.051 51.517,51.517 51.517,-51.517 51.518,51.517 51.492,-51.491 1.316,1.317 1.344,-1.343 51.518,51.517 51.49,-51.491 0.025,0.025 0.053,-0.051 51.518,51.517 30.92,-30.919 20.597,-20.598 51.518,51.517 51.492,-51.491 c 0,0 0.495,0.496 1.316,1.317 l 1.344,-1.343 8.406,8.406 v 41.196 c -3.242,-3.242 -6.551,-6.552 -9.722,-9.723 m -52.84,-29.68 -20.598,-20.598 0.004,-0.005 -30.92,-30.919 -51.521,51.522 -20.598,-20.598 0.004,-0.005 -30.945,-30.945 -51.549,51.548 -20.598,-20.598 0.006,-0.005 -32.237,-32.236 -52.84,52.839 -20.597,-20.598 0.004,-0.005 -30.919,-30.919 -51.523,51.522 -20.597,-20.598 0.005,-0.005 -30.947,-30.945 -51.548,51.548 c 0,0 -14.316,-14.316 -19.078,-19.078 v -41.206 l 19.083,19.083 51.491,-51.491 0.027,0.025 0.052,-0.051 51.517,51.517 30.919,-30.919 20.598,-20.598 51.518,51.517 51.492,-51.491 1.316,1.317 1.344,-1.343 51.518,51.517 51.49,-51.491 0.025,0.025 0.053,-0.051 51.518,51.517 30.92,-30.919 20.597,-20.598 51.518,51.517 51.492,-51.491 c 0,0 0.495,0.496 1.316,1.317 l 1.344,-1.343 8.406,8.406 v 41.196 c -3.242,-3.242 -6.551,-6.552 -9.723,-9.723 -21.357,21.356 -52.839,52.839 -52.839,52.839 m 52.839,-135.358 c -21.357,21.356 -52.839,52.839 -52.839,52.839 l -20.598,-20.598 0.004,-0.005 -30.92,-30.919 -51.521,51.521 -20.598,-20.598 0.004,-0.004 -30.945,-30.944 -51.549,51.547 -20.598,-20.598 0.006,-0.005 -32.237,-32.236 -52.84,52.839 -20.597,-20.598 0.004,-0.005 -30.919,-30.919 -51.523,51.521 -20.597,-20.598 0.005,-0.004 -30.947,-30.944 -51.548,51.547 c 0,0 -14.316,-14.317 -19.078,-19.079 v -41.205 l 19.083,19.083 51.491,-51.491 0.027,0.025 0.052,-0.052 51.517,51.518 30.919,-30.919 20.598,-20.599 51.518,51.518 51.492,-51.491 1.316,1.316 1.344,-1.343 51.518,51.518 51.49,-51.491 0.025,0.025 0.053,-0.052 51.518,51.518 30.92,-30.919 20.597,-20.599 51.518,51.518 51.492,-51.491 1.316,1.316 1.344,-1.343 8.406,8.406 v 41.197 c -3.242,-3.242 -6.551,-6.553 -9.723,-9.723 m -52.839,-29.68 -20.598,-20.599 0.004,-0.005 -30.92,-30.919 -51.521,51.523 -20.598,-20.599 0.004,-0.004 -30.945,-30.945 -51.549,51.548 -20.598,-20.599 0.006,-0.004 -32.237,-32.237 -52.84,52.84 -20.597,-20.599 0.004,-0.005 -30.919,-30.919 -51.523,51.523 -20.597,-20.599 0.005,-0.004 -30.947,-30.945 -51.548,51.548 c 0,0 -14.316,-14.318 -19.078,-19.079 V 203.43 l 19.083,19.083 51.491,-51.492 0.027,0.026 0.052,-0.051 51.517,51.517 51.517,-51.517 51.518,51.517 51.492,-51.492 1.316,1.318 1.344,-1.344 51.518,51.518 51.49,-51.492 0.025,0.026 0.053,-0.051 51.518,51.517 51.517,-51.517 51.518,51.517 51.492,-51.492 c 0,0 0.495,0.496 1.316,1.318 l 1.344,-1.344 8.406,8.406 v 41.197 l -9.722,-9.723 c -21.358,21.355 -52.84,52.839 -52.84,52.839 m 0,-82.519 -20.598,-20.599 0.004,-0.004 -30.92,-30.919 -51.521,51.52 -20.598,-20.597 0.004,-0.004 -30.945,-30.946 -51.549,51.548 -20.598,-20.598 0.006,-0.004 -32.237,-32.237 -52.84,52.84 -20.597,-20.599 0.004,-0.004 -30.919,-30.919 -51.523,51.52 -20.597,-20.597 0.005,-0.004 -30.947,-30.946 -51.548,51.548 c 0,0 -14.316,-14.317 -19.078,-19.079 v -41.204 l 19.083,19.083 51.491,-51.492 0.027,0.025 0.052,-0.05 51.517,51.516 51.517,-51.516 51.518,51.517 51.492,-51.491 1.316,1.316 1.344,-1.343 51.518,51.518 51.49,-51.492 0.025,0.025 0.053,-0.05 51.518,51.516 51.517,-51.516 51.518,51.517 51.492,-51.491 1.316,1.316 1.344,-1.343 8.406,8.406 v 41.196 l -9.722,-9.723 z m 52.84,-135.359 -52.84,52.84 -20.598,-20.599 0.004,-0.005 -30.92,-30.918 -51.521,51.521 -20.598,-20.599 0.004,-0.004 -30.945,-30.945 -51.549,51.549 -20.598,-20.599 0.006,-0.005 -32.237,-32.236 -52.84,52.84 -20.597,-20.599 0.004,-0.005 L 174.489,47.154 122.966,98.675 102.369,78.076 102.374,78.072 71.427,47.127 19.879,98.676 c 0,0 -14.316,-14.318 -19.078,-19.079 V 38.392 l 19.083,19.083 51.491,-51.492 0.027,0.027 0.052,-0.053 51.517,51.518 51.517,-51.518 51.518,51.518 51.492,-51.492 1.316,1.318 1.344,-1.344 51.518,51.518 51.49,-51.492 0.025,0.027 0.053,-0.053 51.518,51.518 30.92,-30.919 20.597,-20.599 51.518,51.518 51.492,-51.492 c 0,0 0.495,0.496 1.316,1.318 l 1.344,-1.344 8.406,8.406 v 41.196 c -3.242,-3.243 -6.551,-6.551 -9.722,-9.723 M 315.159,-0.354 h 33.022 l -16.511,16.51 z m 103.089,0 h 33.021 l -16.511,16.51 c 0,0 -10.504,-10.505 -16.51,-16.51 m 119.545,16.51 -16.511,-16.51 h 33.022 z m -517.914,0 -16.51,-16.51 H 36.39 C 27.235,8.8 19.879,16.156 19.879,16.156 m 103.087,0 c 0,0 -10.504,-10.505 -16.509,-16.51 h 33.021 c -9.155,9.153 -16.512,16.51 -16.512,16.51 m 103.035,0 -16.51,-16.51 h 33.021 z"
           style="fill:#231f20;fill-opacity:1;fill-rule:nonzero;stroke:none"
           id="path2447"
           inkscape:connector-curvature="0" /></g></g></g></svg>